<?xml version="1.0" encoding="utf-8"?>
<!-- Generator: Adobe Illustrator 19.0.0, SVG Export Plug-In . SVG Version: 6.00 Build 0)  -->
<svg version="1.1" id="Layer_1" xmlns="http://www.w3.org/2000/svg" xmlns:xlink="http://www.w3.org/1999/xlink" x="0px" y="0px"
	 viewBox="-278 370 54 54" style="enable-background:new -278 370 54 54;" xml:space="preserve">
<style type="text/css">
	.st0{fill:#5D3089;}
	.st1{display:none;}
	.st2{display:inline;}
	.st3{fill:#FCFCFC;}
</style>
<rect id="XMLID_14_" x="-278" y="370" class="st0" width="54" height="54"/>
<g class="st1">
	<rect x="-1112.5" y="1484" class="st2" width="36" height="36"/>
</g>
<g class="st1">
	<g class="st2">
		<g>
			<path d="M-1086.2,1492.5c-0.6-2.2-2-4-4-5.2c-1.3-0.8-2.8-1.1-4.3-1.1c-0.7,0-1.5,0.1-2.2,0.3c-2.2,0.6-4,2-5.2,4
				c-0.8,1.3-1.1,2.8-1.1,4.3c0,0.7,0.1,1.5,0.3,2.2c0.3,1.2,1.4,2,2.5,1.9c0.2,0,0.5,0,0.7-0.1c1.2-0.3,2-1.4,2-2.5
				c0-0.2,0-0.5-0.1-0.7c-0.1-0.3-0.1-0.6-0.1-0.9c0-0.6,0.1-1.1,0.4-1.6c0.4-0.8,1.1-1.3,2-1.5c0.3-0.1,0.6-0.1,0.9-0.1
				c0.6,0,1.1,0.1,1.6,0.4c0.8,0.4,1.3,1.1,1.5,2c0.1,0.3,0.1,0.6,0.1,0.9c0,0.6-0.1,1.1-0.4,1.6l-10.3,17.8
				c-0.2,0.4-0.4,0.9-0.4,1.3l0,0l0,0c0,0.7,0.3,1.4,0.8,1.9v0.1l0.5,0.3l0,0l0.5,0.3v-0.1c0.2,0.1,0.5,0.1,0.7,0.1l0,0l0,0
				c0.9,0,1.8-0.5,2.3-1.3l10.5-17.8c0.8-1.3,1.1-2.8,1.1-4.3C-1085.9,1494-1086,1493.2-1086.2,1492.5z M-1087.8,1491.5
				c-0.1-0.2-0.2-0.3-0.3-0.5C-1088,1491.2-1087.9,1491.3-1087.8,1491.5z M-1101.5,1493.1c-0.1,0.4-0.2,0.9-0.2,1.3
				C-1101.7,1494-1101.6,1493.5-1101.5,1493.1z M-1099.7,1497.6c-0.1,0-0.2,0-0.4,0c-0.6,0-1.2-0.4-1.4-1c-0.2-0.6-0.3-1.3-0.3-1.9
				c0-0.1,0-0.2,0-0.3c0,0.5,0,0.9,0.1,1.4l2.8-0.7c0-0.1,0-0.2,0-0.2c0,0.3,0.1,0.7,0.1,1c0,0.1,0,0.2,0,0.4
				C-1098.7,1496.9-1099.1,1497.4-1099.7,1497.6z M-1098.9,1494.6c0-0.1,0-0.2,0-0.3C-1098.9,1494.4-1098.9,1494.5-1098.9,1494.6z
				 M-1098.8,1494.1c0-0.1,0.1-0.3,0.1-0.4C-1098.8,1493.8-1098.8,1493.9-1098.8,1494.1z M-1098.7,1493.5c0-0.1,0.1-0.3,0.2-0.4
				C-1098.6,1493.2-1098.7,1493.3-1098.7,1493.5z M-1098.5,1492.9c0.1-0.2,0.1-0.3,0.2-0.5l0,0
				C-1098.4,1492.6-1098.5,1492.8-1098.5,1492.9z M-1094.4,1490.2c-0.4,0-0.8,0.1-1.2,0.2c-1,0.3-1.9,0.9-2.5,1.8l-3.4,0.9
				c0.2-0.7,0.4-1.4,0.8-2c0.4-0.7,0.9-1.3,1.5-1.8c-0.1,0-0.1,0.1-0.2,0.1l6.8-1.8c-1.2-0.3-2.5-0.3-3.7,0l0,0l0,0
				c0.6-0.2,1.3-0.3,1.9-0.3c1.3,0,2.5,0.3,3.6,1c1.1,0.6,1.9,1.5,2.6,2.5c-0.2-0.4-0.5-0.8-0.8-1.1l-3.4,0.9c0.1,0,0.2,0.1,0.3,0.1
				C-1092.9,1490.4-1093.6,1490.2-1094.4,1490.2z M-1096.9,1487.9c-0.1,0-0.1,0-0.2,0.1C-1097,1487.9-1097,1487.9-1096.9,1487.9z
				 M-1097.6,1488.1L-1097.6,1488.1C-1097.7,1488.2-1097.7,1488.2-1097.6,1488.1z M-1098.2,1488.4c-0.1,0-0.1,0.1-0.2,0.1
				C-1098.3,1488.5-1098.2,1488.5-1098.2,1488.4z M-1098.8,1488.9c-0.1,0-0.1,0.1-0.2,0.1C-1098.9,1489-1098.8,1488.9-1098.8,1488.9
				z M-1092.1,1490.9c0.1,0.1,0.2,0.1,0.3,0.2C-1091.9,1491-1092,1490.9-1092.1,1490.9z M-1091.4,1491.4c0.1,0.1,0.1,0.1,0.2,0.2
				C-1091.3,1491.5-1091.3,1491.5-1091.4,1491.4z M-1091.7,1491.1c0.1,0.1,0.1,0.1,0.2,0.2
				C-1091.6,1491.2-1091.6,1491.2-1091.7,1491.1z M-1100.5,1516.6c0,0,0.1,0.1,0.2,0.1C-1100.4,1516.7-1100.4,1516.7-1100.5,1516.6z
				 M-1099.6,1516.9L-1099.6,1516.9L-1099.6,1516.9L-1099.6,1516.9L-1099.6,1516.9z M-1100.3,1516.8c0.1,0,0.1,0.1,0.2,0.1
				C-1100.1,1516.8-1100.2,1516.8-1100.3,1516.8z M-1100,1516.9c0.1,0,0.1,0,0.2,0C-1099.9,1516.9-1099.9,1516.9-1100,1516.9z
				 M-1098.7,1516.6C-1098.6,1516.6-1098.6,1516.5-1098.7,1516.6L-1098.7,1516.6z M-1099.4,1516.9c0.1,0,0.1,0,0.2,0
				C-1099.3,1516.9-1099.4,1516.9-1099.4,1516.9z M-1099.2,1516.9c0.1,0,0.1,0,0.2-0.1C-1099.1,1516.8-1099.1,1516.9-1099.2,1516.9z
				 M-1098.9,1516.8c0.1,0,0.1-0.1,0.2-0.1C-1098.8,1516.7-1098.9,1516.7-1098.9,1516.8z M-1098.5,1516.4c0-0.1,0.1-0.1,0.1-0.2
				C-1098.4,1516.3-1098.5,1516.4-1098.5,1516.4z M-1090,1501.7l-3.8,1l-1.9,3.2l3.8-1l-2.1,3.6l-3.8,1l-1.7,3l3.8-1l-2.1,3.6
				l-3.1,0.8c0.1,0.2,0.2,0.4,0.4,0.6c-0.3-0.2-0.5-0.6-0.5-1l0,0v-0.1c0-0.2,0.1-0.5,0.2-0.7l10.3-17.9c0-0.1,0.1-0.2,0.1-0.2
				c0,0.1-0.1,0.2-0.1,0.2l-1.2,2.1l3.8-1c0.4-0.8,0.7-1.7,0.8-2.6c-0.1,1-0.4,2-0.9,2.9L-1090,1501.7z M-1091.1,1491.7
				L-1091.1,1491.7C-1091,1491.8-1091,1491.7-1091.1,1491.7z M-1090.7,1492.2L-1090.7,1492.2L-1090.7,1492.2z M-1087.1,1495.5
				c0-0.1,0-0.3,0-0.4l-3,0.8c0.1-0.4,0.1-0.8,0.2-1.1c0-0.4-0.1-0.8-0.2-1.2c-0.1-0.2-0.2-0.5-0.3-0.7l0,0l2.8-0.7
				c0.1,0.2,0.2,0.5,0.2,0.7c0.2,0.6,0.3,1.3,0.3,1.9C-1087.1,1495-1087.1,1495.2-1087.1,1495.5z M-1090.5,1492.5
				C-1090.5,1492.5-1090.5,1492.6-1090.5,1492.5C-1090.5,1492.6-1090.5,1492.5-1090.5,1492.5z"/>
		</g>
	</g>
</g>
<g class="st1">
	<g class="st2">
		<g>
			<path d="M-1078.3,1491c0-1.6-0.4-2.9-1.1-3.7c-0.8-0.8-1.8-1.1-2.9-1.1c-2.8,0-6.2,1.9-8.5,3.6c-1.2-0.3-2.4-0.5-3.7-0.5l0,0
				c-1.2,0-2.3,0.2-3.4,0.4c-2.3-1.7-5.7-3.5-8.4-3.5c-1.1,0-2.2,0.3-2.9,1.1c-0.8,0.8-1.1,2.1-1.1,3.7c0,2,0.5,4.6,1.8,8.2
				c-0.6,1.5-0.9,3.1-0.9,4.8v0.1c0,7.6,6.8,13.7,15.1,13.8c8.1-0.1,14.8-6,15.1-13.4l0,0v-0.5c0-1.5-0.3-2.9-0.7-4.3
				C-1078.9,1495.9-1078.3,1493.1-1078.3,1491z M-1085.9,1505.1c0.1,0.3,0.3,0.6,0.7,0.6h0.1l4.1-0.7c-0.1,0.6-0.2,1.2-0.3,1.8
				l-4.1,0.7c-0.4,0.1-0.6,0.4-0.6,0.8c0.1,0.3,0.4,0.6,0.7,0.6h0.1l3.4-0.6c-1.9,4.7-6.9,8.2-12.9,8.3c-6,0-11-3.6-12.9-8.3
				l3.7,0.6h0.1c0.3,0,0.6-0.2,0.7-0.6c0.1-0.4-0.2-0.7-0.6-0.8l-4.4-0.7l0,0c-0.1-0.6-0.2-1.2-0.3-1.8l4.5,0.8h0.1
				c0.3,0,0.6-0.2,0.7-0.6c0.1-0.4-0.2-0.7-0.6-0.8l-4.7-0.8c0.1-1.4,0.4-2.7,0.9-4l0.1-0.2l-0.1-0.2c-1.3-3.6-1.8-6.2-1.8-7.9
				c0-1.4,0.3-2.3,0.8-2.8c0.4-0.5,1.1-0.7,1.9-0.7c2.3,0,5.7,1.8,7.9,3.4l0.3,0.2l0.3-0.1c0.9-0.2,1.8-0.4,2.7-0.4v1.5h-4.3
				c-0.4,0-0.7,0.3-0.7,0.7s0.3,0.7,0.7,0.7h4.3v1.4h-4.3c-0.4,0-0.7,0.3-0.7,0.7s0.3,0.7,0.7,0.7h4.3v1.4h-4.3
				c-0.4,0-0.7,0.3-0.7,0.7s0.3,0.7,0.7,0.7h4.3v1.4c0,0.4,0.3,0.7,0.7,0.7s0.7-0.3,0.7-0.7v-1.4h4.4c0.4,0,0.7-0.3,0.7-0.7
				s-0.3-0.7-0.7-0.7h-4.4v-1.4h4.4c0.4,0,0.7-0.3,0.7-0.7s-0.3-0.7-0.7-0.7h-4.4v-1.4h4.4c0.4,0,0.7-0.3,0.7-0.7s-0.3-0.7-0.7-0.7
				h-4.4v-1.5c1,0.1,2,0.2,3,0.5l0.3,0.1l0.3-0.2c2.2-1.6,5.7-3.5,8-3.5c0.9,0,1.5,0.2,1.9,0.7c0.4,0.5,0.8,1.3,0.8,2.8
				c0,1.8-0.6,4.6-2,8.5l-0.1,0.2l0.1,0.2c0.4,1.2,0.7,2.3,0.7,3.6l-4.4,0.7C-1085.7,1504.4-1086,1504.7-1085.9,1505.1z
				 M-1089.3,1509.9c-0.4,0-0.7,0.3-0.7,0.7c0,0.2-0.3,0.7-1.2,1.1c-0.7,0.3-1.7,0.6-2.8,0.6v-3.3c0.7-0.7,1.7-1.4,2.2-2
				c0.1-0.2,0.2-0.4,0.1-0.6c-0.1-0.2-0.3-0.3-0.5-0.4c-0.8-0.1-1.6-0.1-2.5-0.1c-0.9,0-1.6,0-2.5,0.1c-0.2,0-0.4,0.2-0.5,0.4
				c-0.1,0.2-0.1,0.4,0.1,0.6c0.5,0.7,1.5,1.4,2.2,2v3.3c-1.1-0.1-2.1-0.3-2.8-0.6c-0.9-0.4-1.2-0.9-1.2-1.1c0-0.4-0.3-0.7-0.7-0.7
				c-0.4,0-0.7,0.3-0.7,0.7c0,1.1,0.9,1.9,2,2.4s2.5,0.8,4.1,0.8s3-0.3,4.1-0.8s1.9-1.2,2-2.4
				C-1088.6,1510.3-1088.9,1509.9-1089.3,1509.9z M-1106.3,1496c0,0.1,1.5-2.7,4.9-4C-1103.9,1489.7-1109.5,1487.1-1106.3,1496z
				 M-1082.7,1496c3.1-8.8-2.4-6.3-4.9-4C-1084.2,1493.2-1082.7,1496-1082.7,1496z M-1099.7,1503.9c0.8,0,1.4-0.6,1.4-1.4
				s-0.6-1.4-1.4-1.4c-0.2,0-0.4,0-0.6,0.1l-1.7-0.5l0.8,1.6c0,0.1,0,0.1,0,0.2C-1101.1,1503.2-1100.5,1503.9-1099.7,1503.9z
				 M-1089,1501.1c-0.2-0.1-0.4-0.1-0.6-0.1c-0.8,0-1.4,0.6-1.4,1.4s0.6,1.4,1.4,1.4c0.8,0,1.4-0.6,1.4-1.4c0-0.1,0-0.1,0-0.2
				l0.8-1.6L-1089,1501.1z"/>
		</g>
	</g>
</g>
<g class="st1">
	<g class="st2">
		<g>
			<path d="M-1099.6,1500.3c-0.6,0-1.1,0.5-1.1,1.1s0.5,1.1,1.1,1.1s1.1-0.5,1.1-1.1C-1098.5,1500.7-1099,1500.3-1099.6,1500.3z
				 M-1089.2,1500.3c-0.6,0-1.1,0.5-1.1,1.1s0.5,1.1,1.1,1.1c0.6,0,1.1-0.5,1.1-1.1C-1088.1,1500.7-1088.6,1500.3-1089.2,1500.3z
				 M-1080.3,1489.2c-1.3-1.2-3.1-1.8-5-1.8h-0.1h-0.1c-1.9,0-3.7,0.6-5,1.8c-0.4,0.4-0.8,0.9-1.1,1.4c-0.9-0.3-1.8-0.4-2.8-0.4
				s-1.9,0.2-2.8,0.4c-0.3-0.5-0.7-1-1.1-1.4c-1.3-1.2-3.1-1.8-5-1.8h-0.1c0,0,0,0-0.1,0c-1.9,0-3.7,0.6-5,1.8
				c-1.3,1.2-2.1,3-2.1,5.1l0,0c0,3,1.6,5.6,3.9,6.9c-0.2,0.8-0.3,1.7-0.4,2.6c0,0.2,0,0.5,0,0.7c0,6.6,5.6,12,12.7,12
				c7.2-0.1,12.8-5.4,12.8-12c0-0.2,0-0.5,0-0.7h-0.6h-0.6c0,0.2,0,0.4,0,0.6c0,5.9-5,10.7-11.5,10.8c-6.5-0.1-11.5-4.9-11.5-10.8
				c0-0.2,0-0.4,0-0.6c0.4-6.3,5.6-12.4,11.4-12.4c5.8,0,11.1,6.1,11.4,12.4l1.3-0.1c-0.1-0.9-0.2-1.7-0.4-2.6
				c2.3-1.3,3.8-3.9,3.8-6.9l0,0C-1078.2,1492.2-1079,1490.4-1080.3,1489.2z M-1104.7,1496.5c-0.6-0.4-1.1-1.2-1.1-2.2l0,0
				c0-1.5,0.9-2.2,2.3-2.2l0,0l0,0l0,0l0,0c0.8,0,1.5,0.3,1.9,0.9C-1102.8,1494-1103.8,1495.2-1104.7,1496.5z M-1100.5,1492.2
				c-0.1-0.2-0.3-0.3-0.4-0.5c-0.7-0.6-1.6-0.9-2.5-0.9l0,0l0,0c-1,0-1.9,0.3-2.5,0.9c-0.7,0.6-1.1,1.5-1.1,2.6l0,0
				c0,1.4,0.7,2.6,1.7,3.3c-0.4,0.8-0.7,1.5-1,2.3c-1.8-1.1-3-3.1-3-5.6l0,0l0,0c0-3.6,2.5-5.6,5.8-5.7c0,0,0,0,0.1,0l0,0l0,0h0.1
				c2.1,0,3.9,0.9,4.9,2.4C-1099.2,1491.4-1099.9,1491.8-1100.5,1492.2z M-1084.1,1496.5c-0.9-1.4-1.9-2.6-3.2-3.6
				c0.4-0.5,1-0.8,1.8-0.8l0,0l0,0l0,0l0,0c1.4,0,2.3,0.8,2.3,2.2l0,0l0,0C-1083.1,1495.3-1083.5,1496-1084.1,1496.5z
				 M-1079.5,1494.3c0,2.5-1.2,4.5-2.9,5.6c-0.3-0.8-0.6-1.6-1-2.3c1-0.7,1.7-1.9,1.7-3.3l0,0c0-1.1-0.4-2-1.1-2.6s-1.6-0.9-2.5-0.9
				l0,0l0,0c-1,0-1.9,0.3-2.5,0.9c-0.1,0.1-0.3,0.3-0.4,0.4c-0.7-0.4-1.3-0.8-2.1-1.1c1-1.6,2.8-2.4,4.9-2.4h0.1l0,0h0.1
				C-1082,1488.7-1079.6,1490.7-1079.5,1494.3L-1079.5,1494.3L-1079.5,1494.3z M-1094.4,1500.3L-1094.4,1500.3L-1094.4,1500.3
				c-1.2,0-2.3,0.5-3,1.4s-1.2,2.1-1.2,3.5l0,0c0,1.4,0.4,2.6,1.2,3.4c0.7,0.8,1.8,1.2,2.9,1.2l0,0l0,0l0,0l0,0
				c1.1,0,2.1-0.4,2.9-1.2c0.8-0.8,1.2-2,1.2-3.4l0,0l0,0c0-1.4-0.4-2.6-1.2-3.5C-1092.2,1500.9-1093.2,1500.3-1094.4,1500.3z
				 M-1091.6,1505.3c0,2.3-1.2,3.3-2.8,3.3l0,0l0,0c-1.6,0-2.8-1-2.8-3.3l0,0c0-2.3,1.3-3.7,2.8-3.7l0,0l0,0l0,0
				C-1092.9,1501.6-1091.6,1503-1091.6,1505.3L-1091.6,1505.3z"/>
		</g>
	</g>
</g>
<g class="st1">
	<g class="st2">
		<g>
			<path d="M-1086.7,1499.4c0-3.6-3.6-6.3-7.9-6.3c-4.2,0-7.8,2.7-7.9,6.3c0,0.9,0.2,1.7,0.6,2.4c-0.9,1-1.4,2.3-1.4,3.7
				c0,1.9,1,3.6,2.6,4.8c1.6,1.2,3.7,1.9,6.1,1.9c2.4,0,4.5-0.7,6.1-1.9c1.6-1.2,2.6-2.9,2.6-4.8c0-1.4-0.5-2.6-1.4-3.7
				C-1086.9,1501.1-1086.7,1500.3-1086.7,1499.4z M-1087,1505.5c0,1.5-0.8,2.8-2.1,3.8c-1.4,1-3.3,1.7-5.4,1.7s-4-0.6-5.4-1.7
				c-1.4-1-2.1-2.4-2.1-3.8c0-1.2,0.5-2.3,1.4-3.2l0.3-0.3l-0.2-0.4c-0.4-0.7-0.6-1.4-0.6-2.2c0-1.4,0.7-2.6,1.9-3.6
				c1.2-0.9,2.9-1.5,4.8-1.5l0,0c1.9,0,3.6,0.6,4.8,1.5s1.9,2.2,1.9,3.6c0,0.8-0.2,1.5-0.6,2.2l-0.2,0.4l0.3,0.3
				C-1087.5,1503.3-1087,1504.4-1087,1505.5z M-1097.2,1502c0.5,0,0.9-0.4,0.9-0.9s-0.4-0.9-0.9-0.9s-0.9,0.4-0.9,0.9
				S-1097.7,1502-1097.2,1502z M-1091,1501.1c0-0.5-0.4-0.9-0.9-0.9s-0.9,0.4-0.9,0.9s0.4,0.9,0.9,0.9S-1091,1501.6-1091,1501.1z
				 M-1097.7,1497.1c0.3,0,0.4,0,0.6,0.1c0.2,0.1,0.5,0.1,1,0.1s0.8-0.1,1-0.1c0.2-0.1,0.3-0.1,0.6-0.1c0.3,0,0.4,0,0.6,0.1
				c0.2,0.1,0.5,0.1,1,0.1l0,0c0.4,0,0.7-0.1,0.9-0.1c0.2-0.1,0.3-0.1,0.6-0.1c0.3,0,0.6-0.3,0.6-0.6s-0.3-0.6-0.6-0.6
				c-0.5,0-0.8,0.1-1,0.1c-0.2,0.1-0.3,0.1-0.6,0.1c-0.3,0-0.4,0-0.6-0.1s-0.5-0.1-1-0.1s-0.8,0.1-1,0.1c-0.2,0.1-0.3,0.1-0.6,0.1
				c-0.3,0-0.4,0-0.6-0.1s-0.5-0.1-1-0.1c-0.3,0-0.6,0.3-0.6,0.6C-1098.3,1496.8-1098.1,1497.1-1097.7,1497.1z M-1097.7,1498.9
				c0.3,0,0.4,0,0.6,0.1c0.2,0.1,0.5,0.1,1,0.1l0,0c0.4,0,0.7-0.1,0.9-0.1c0.2-0.1,0.3-0.1,0.6-0.1c0.3,0,0.4,0,0.6,0.1
				s0.5,0.1,1,0.1s0.8-0.1,1-0.1c0.2-0.1,0.3-0.1,0.6-0.1c0.3,0,0.6-0.3,0.6-0.6s-0.3-0.6-0.6-0.6c-0.5,0-0.8,0.1-1,0.1
				c-0.2,0.1-0.3,0.1-0.6,0.1c-0.3,0-0.4,0-0.6-0.1s-0.5-0.1-1-0.1s-0.8,0.1-1,0.1c-0.2,0.1-0.3,0.1-0.6,0.1c-0.3,0-0.4,0-0.6-0.1
				s-0.5-0.1-1-0.1c-0.3,0-0.6,0.3-0.6,0.6C-1098.3,1498.6-1098.1,1498.9-1097.7,1498.9z M-1095.9,1504.3c-0.3,0.1-0.3,0.5-0.1,0.9
				s0.5,0.6,0.8,0.5c0.3-0.1,0.3-0.5,0.1-0.9C-1095.3,1504.4-1095.7,1504.2-1095.9,1504.3z M-1093.9,1504.8
				c-0.2,0.4-0.1,0.8,0.1,0.9c0.3,0.1,0.6-0.1,0.8-0.5c0.2-0.4,0.1-0.8-0.1-0.9C-1093.4,1504.2-1093.7,1504.4-1093.9,1504.8z
				 M-1092,1506.2c0.1,0.1,0.2,0.1,0.3,0.1c0.2,0,0.4-0.1,0.5-0.3c0.2-0.3,0.3-0.7,0.3-1.1s-0.1-0.8-0.3-1.1
				c-0.2-0.3-0.5-0.6-0.8-0.9s-0.7-0.4-1.2-0.5c-0.4-0.1-0.9-0.2-1.4-0.2s-0.9,0.1-1.4,0.2c-0.4,0.1-0.8,0.3-1.2,0.5
				c-0.3,0.2-0.6,0.5-0.8,0.9c-0.2,0.3-0.3,0.7-0.3,1.1s0.1,0.8,0.3,1.1c0.2,0.3,0.5,0.4,0.8,0.2c0.3-0.2,0.4-0.5,0.2-0.8
				c-0.1-0.2-0.2-0.3-0.2-0.5s0.1-0.3,0.2-0.5c0.1-0.2,0.3-0.3,0.5-0.5c0.2-0.2,0.5-0.3,0.8-0.4s0.7-0.1,1-0.1s0.7,0.1,1,0.1
				c0.3,0.1,0.6,0.2,0.8,0.4c0.2,0.2,0.4,0.3,0.5,0.5c0.1,0.2,0.2,0.3,0.2,0.5s-0.1,0.3-0.2,0.5
				C-1092.3,1505.6-1092.2,1506-1092,1506.2z M-1091.3,1507.3L-1091.3,1507.3c-0.4,0.3-0.9,0.5-1.4,0.7c-0.6,0.2-1.2,0.3-1.8,0.3
				s-1.3-0.1-1.8-0.3c-0.6-0.2-1-0.4-1.4-0.7c-0.3-0.2-0.6-0.1-0.8,0.1c-0.2,0.3-0.1,0.6,0.1,0.8c0.5,0.4,1.1,0.7,1.8,0.8
				c0.7,0.2,1.4,0.3,2.1,0.3s1.5-0.1,2.1-0.3c0.7-0.2,1.3-0.5,1.8-0.8c0.3-0.2,0.3-0.6,0.1-0.8
				C-1090.7,1507.2-1091,1507.1-1091.3,1507.3z M-1081.9,1495.1c-0.1,0-0.1,0-0.2,0c-0.9,0-1.6,0.3-2.3,0.8
				c-2.3-4.2-6.2-6.8-10.1-6.9c-4,0-7.8,2.7-10.1,6.9c-0.6-0.5-1.4-0.8-2.3-0.9c-0.1,0-0.1,0-0.2,0c-2,0.1-3.5,2-3.5,4.1
				c0,0.1,0,0.2,0,0.3c0.1,2.1,1.7,3.9,3.8,3.9h0.1l0,0c0,3.1,1.3,6.1,3.4,8.3c2.2,2.2,5.2,3.6,8.8,3.6s6.6-1.4,8.8-3.6
				c2.2-2.2,3.4-5.1,3.4-8.3l0,0h0.1c2,0,3.6-1.7,3.8-3.9l0,0c0-0.1,0-0.2,0-0.3C-1078.4,1497-1079.9,1495.2-1081.9,1495.1z
				 M-1106.6,1502.1C-1106.7,1502.1-1106.7,1502.1-1106.6,1502.1c-0.1,0-0.2,0-0.2,0c-1.3,0-2.5-1.2-2.6-2.8l0,0c0-0.1,0-0.1,0-0.2
				c0-1.6,1.1-2.8,2.4-2.9h0.1c0.6,0,1.3,0.3,1.7,0.8c-0.6,1.3-1,2.6-1.3,4.1C-1106.6,1501.4-1106.6,1501.7-1106.6,1502.1z
				 M-1094.5,1513.9c-6.5,0-11-5-11-10.7c0-0.7,0.1-1.3,0.2-2c1.2-6.6,6.2-11.1,10.8-11.1c4.7,0,9.6,4.5,10.8,11.1l0,0
				c0.1,0.7,0.2,1.3,0.2,2C-1083.5,1508.9-1088,1513.9-1094.5,1513.9z M-1079.6,1499.3c-0.1,1.6-1.3,2.8-2.6,2.8h-0.1c0,0,0,0-0.1,0
				c0-0.3-0.1-0.7-0.1-1c-0.3-1.5-0.7-2.8-1.3-4.1c0.5-0.5,1.1-0.8,1.7-0.8l0,0h0.1c1.3,0.1,2.4,1.3,2.4,2.9
				C-1079.6,1499.2-1079.6,1499.2-1079.6,1499.3L-1079.6,1499.3z"/>
		</g>
	</g>
</g>
<g class="st1">
	<g class="st2">
		<g>
			<path d="M-1094.6,1499.8c-4.3,0-7.8,3-7.8,6.8s3.6,6.8,7.8,6.8c4.3,0,7.8-3,7.8-6.8S-1090.4,1499.8-1094.6,1499.8z
				 M-1089.9,1510.5c-1.2,1-2.9,1.7-4.7,1.7c-1.9,0-3.5-0.6-4.7-1.7c-1.2-1-1.9-2.4-1.9-3.9s0.7-2.9,1.9-3.9s2.9-1.7,4.7-1.7
				c1.9,0,3.5,0.6,4.7,1.7c1.2,1,1.9,2.4,1.9,3.9S-1088.7,1509.5-1089.9,1510.5z M-1087.5,1499c-0.7,0-1.2,0.5-1.2,1.2
				s0.5,1.2,1.2,1.2s1.2-0.5,1.2-1.2S-1086.8,1499-1087.5,1499z M-1100.6,1500.2c0-0.7-0.5-1.2-1.2-1.2c-0.7,0-1.2,0.5-1.2,1.2
				s0.5,1.2,1.2,1.2C-1101.2,1501.4-1100.6,1500.8-1100.6,1500.2z M-1094.6,1501.8c-1.3,0-2.3,1-2.3,2.3s1,2.3,2.3,2.3
				s2.3-1,2.3-2.3S-1093.4,1501.8-1094.6,1501.8z M-1078.4,1493.4c0-3-2.4-5.4-5.4-5.4c-2.4,0-4.4,1.5-5.1,3.7
				c-1.8-0.8-3.7-1.2-5.8-1.2c-2,0-3.9,0.4-5.6,1.1c-0.7-2.1-2.7-3.6-5.1-3.6c-3,0-5.4,2.4-5.4,5.4c0,2.2,1.4,4.2,3.3,5
				c-0.7,1.5-1,3.2-1,4.9c0,7.1,6.2,12.8,13.8,12.8c7.6,0,13.8-5.7,13.8-12.8c0-1.7-0.4-3.3-1-4.8
				C-1079.8,1497.7-1078.4,1495.7-1078.4,1493.4z M-1109.5,1493.4c0-2.3,1.9-4.2,4.2-4.2c1.9,0,3.4,1.2,4,2.9
				c-2.3,1.2-4.2,3-5.5,5.2C-1108.4,1496.6-1109.5,1495.1-1109.5,1493.4z M-1085.8,1511.4c-2.3,2.1-5.4,3.4-8.9,3.4
				s-6.6-1.3-8.9-3.4c-2.3-2.1-3.7-5-3.7-8.2s1.4-6.1,3.7-8.2c2.3-2.1,5.4-3.4,8.9-3.4l0,0c3.5,0,6.6,1.3,8.9,3.4s3.7,5,3.7,8.2
				S-1083.5,1509.3-1085.8,1511.4z M-1082.4,1497.3c-1.2-2.2-3.1-3.9-5.3-5.1c0.5-1.7,2.1-3,4-3c2.3,0,4.2,1.9,4.2,4.2
				C-1079.6,1495.2-1080.8,1496.8-1082.4,1497.3z"/>
		</g>
	</g>
</g>
<g class="st1">
	<g class="st2">
		<g>
			<path d="M-1098.4,1502.2c0.6,0,1-0.5,1-1c0-0.6-0.5-1-1-1s-1,0.5-1,1S-1098.9,1502.2-1098.4,1502.2z M-1090.4,1502.2
				c0.6,0,1-0.5,1-1c0-0.6-0.5-1-1-1c-0.6,0-1,0.5-1,1S-1091,1502.2-1090.4,1502.2z M-1092.5,1514.3c0.1,0,0.1,0,0.2,0
				c0.2,0,0.5-0.1,0.5-0.4l0.5-1.3c0.1-0.3,0-0.6-0.3-0.7s-0.6,0-0.7,0.3l-0.5,1.3C-1093,1513.9-1092.8,1514.2-1092.5,1514.3z
				 M-1097.2,1514c0.1,0.2,0.3,0.4,0.5,0.4c0.1,0,0.1,0,0.2,0c0.3-0.1,0.5-0.4,0.3-0.7l-0.5-1.3c-0.1-0.3-0.4-0.5-0.7-0.3
				c-0.3,0.1-0.5,0.4-0.3,0.7L-1097.2,1514z M-1081.7,1496.1c0-1-0.3-1.7-0.4-1.7c-0.1-0.3-0.5-0.4-0.8-0.3l-5.9,2.8
				c-0.8-0.9-1.9-1.6-3.1-2.1l0.5-3c1.4,0,2.6-1,2.8-2.4l0,0c0-0.2,0-0.3,0-0.5c0-1.4-1-2.7-2.4-2.9c-0.2,0-0.3,0-0.5,0
				c-1.4,0-2.7,1-2.9,2.4c0,0.2,0,0.3,0,0.5c0,1.2,0.8,2.3,1.9,2.8l-0.5,2.9c-0.5-0.1-1.1-0.2-1.6-0.2c-0.1,0-0.3,0-0.4,0l0,0h-0.1
				c-0.2,0-0.3,0-0.5,0h-0.1c0,0,0,0-0.1,0c-0.1,0-0.2,0-0.4,0.1c-0.1,0-0.2,0-0.2,0l-0.5-3c1.1-0.4,1.9-1.5,1.9-2.8
				c0-0.2,0-0.3,0-0.5l0,0c-0.3-1.4-1.5-2.4-2.9-2.4c-0.2,0-0.3,0-0.5,0c-1.4,0.3-2.4,1.5-2.4,2.9c0,0.2,0,0.3,0,0.5
				c0.2,1.4,1.5,2.4,2.9,2.4l0.5,3.1c-1.3,0.5-2.2,1.2-2.9,2l-5.8-2.7c-0.3-0.1-0.6,0-0.8,0.3c0,0.1-0.4,0.7-0.4,1.7
				c0,1.7,0.9,4.3,5,6.6c-0.2,2.5-0.3,5.1-0.5,7.6c0,0.2,0,0.4,0,0.5c0,4.2,3.6,7.4,8.2,7.4c4.6,0,8.2-3.3,8.2-7.4
				c0-0.2,0-0.4,0-0.6c-0.2-2.5-0.3-5-0.5-7.6C-1082.6,1500.4-1081.7,1497.8-1081.7,1496.1z M-1093.1,1488.8c0-0.1,0-0.2,0-0.3
				c0.2-0.9,0.9-1.5,1.8-1.5c0.1,0,0.2,0,0.3,0c0.9,0.2,1.5,0.9,1.5,1.8v0.3l0,0c-0.2,0.9-0.9,1.5-1.8,1.5c-0.1,0-0.2,0-0.3,0
				C-1092.5,1490.4-1093.1,1489.7-1093.1,1488.8z M-1097.6,1490.6c-0.1,0-0.2,0-0.3,0c-0.9,0-1.6-0.6-1.8-1.5c0-0.1,0-0.2,0-0.3
				c0-0.9,0.6-1.6,1.5-1.8c0.1,0,0.2,0,0.3,0c0.9,0,1.6,0.6,1.8,1.5c0,0.1,0,0.2,0,0.3C-1096.2,1489.7-1096.8,1490.4-1097.6,1490.6z
				 M-1100.5,1499.3c0.4,0.1,0.7,0.1,1,0.1l0,0c2,0,3.3-1.2,3.8-2.2c0.3-0.6,0.5-1.3,0.6-1.7c0.2,0,0.4,0,0.6,0
				c3.4,0,6.2,2.1,6.5,5.9c0.2,2.8,0.4,5.6,0.5,8.4h-14c0.2-2.8,0.4-5.6,0.5-8.4C-1100.9,1500.6-1100.8,1499.9-1100.5,1499.3z
				 M-1102.2,1501.4c-3.4-2.1-3.9-4.1-3.9-5.3c0-0.3,0-0.5,0.1-0.7l5,2.3c-0.3,0.4-0.4,0.7-0.4,0.7v0.1
				C-1101.8,1499.3-1102,1500.3-1102.2,1501.4C-1102.2,1501.3-1102.2,1501.4-1102.2,1501.4z M-1087.5,1511.2c0,0.1,0,0.2,0,0.3
				s0,0.2,0,0.3c0,0.1,0,0.2-0.1,0.3c0,0.1-0.1,0.2-0.1,0.3c0,0.1-0.1,0.2-0.1,0.3s-0.1,0.2-0.1,0.3c0,0.1-0.1,0.2-0.1,0.3
				s-0.1,0.2-0.1,0.3c0,0.1-0.1,0.2-0.1,0.3c-0.1,0.1-0.1,0.2-0.2,0.3c-0.1,0.1-0.1,0.2-0.2,0.2c-0.1,0.1-0.1,0.2-0.2,0.3
				c-0.1,0.1-0.1,0.1-0.2,0.2s-0.2,0.2-0.2,0.2c-0.1,0.1-0.1,0.1-0.2,0.2s-0.2,0.1-0.3,0.2c-0.1,0.1-0.1,0.1-0.2,0.2
				s-0.2,0.1-0.3,0.2c-0.1,0.1-0.2,0.1-0.2,0.2c-0.1,0.1-0.2,0.1-0.3,0.2c-0.1,0-0.2,0.1-0.3,0.1c-0.1,0.1-0.2,0.1-0.3,0.1
				c-0.1,0-0.2,0.1-0.3,0.1s-0.3,0.1-0.4,0.1s-0.2,0.1-0.3,0.1c-0.1,0-0.3,0.1-0.4,0.1c-0.1,0-0.2,0-0.3,0.1c-0.1,0-0.3,0-0.5,0.1
				c-0.1,0-0.2,0-0.3,0c-0.2,0-0.5,0-0.7,0c-0.3,0-0.5,0-0.7,0c-0.1,0-0.2,0-0.2,0c-0.2,0-0.3,0-0.5-0.1c-0.1,0-0.2,0-0.3-0.1
				c-0.1,0-0.3-0.1-0.4-0.1c-0.1,0-0.2-0.1-0.3-0.1s-0.2-0.1-0.4-0.1c-0.1,0-0.2-0.1-0.3-0.1c-0.1,0-0.2-0.1-0.3-0.1
				s-0.2-0.1-0.3-0.1c-0.1-0.1-0.2-0.1-0.3-0.2s-0.2-0.1-0.3-0.2c-0.1-0.1-0.2-0.1-0.3-0.2s-0.2-0.1-0.2-0.2
				c-0.1-0.1-0.2-0.1-0.3-0.2s-0.1-0.1-0.2-0.2c-0.1-0.1-0.2-0.2-0.2-0.2c-0.1-0.1-0.1-0.1-0.2-0.2c-0.1-0.1-0.1-0.2-0.2-0.3
				s-0.1-0.2-0.2-0.2c-0.1-0.1-0.1-0.2-0.2-0.3c0-0.1-0.1-0.2-0.1-0.3c-0.1-0.1-0.1-0.2-0.2-0.3c0-0.1-0.1-0.2-0.1-0.3
				c0-0.1-0.1-0.2-0.1-0.3s-0.1-0.2-0.1-0.3c0-0.1-0.1-0.2-0.1-0.3s0-0.2-0.1-0.3c0-0.1,0-0.2-0.1-0.3c0-0.1,0-0.2,0-0.3
				c0-0.1,0-0.2,0-0.3h14.1C-1087.4,1511-1087.5,1511.1-1087.5,1511.2z M-1086.9,1501.5c0-0.1,0-0.1,0-0.2c-0.1-1.3-0.5-2.5-1.1-3.5
				l5.1-2.4c0,0.2,0.1,0.4,0.1,0.7C-1082.9,1497.3-1083.4,1499.3-1086.9,1501.5z"/>
		</g>
	</g>
</g>
<g class="st1">
	<g class="st2">
		<g>
			<path d="M-1099,1503.4c-0.6,0-1.2,0.5-1.2,1.2c0,0.6,0.5,1.2,1.2,1.2s1.2-0.5,1.2-1.2S-1098.4,1503.4-1099,1503.4z M-1090,1503.4
				c-0.6,0-1.2,0.5-1.2,1.2c0,0.6,0.5,1.2,1.2,1.2c0.6,0,1.2-0.5,1.2-1.2S-1089.4,1503.4-1090,1503.4z M-1094.5,1506.8
				c-1.1,0-1.9,0.7-1.9,1.6s0.9,1.6,1.9,1.6s1.9-0.7,1.9-1.6S-1093.5,1506.8-1094.5,1506.8z M-1080.2,1493.5
				c-3.4-3.1-9.7-4.8-9.7-4.8l-0.3-0.1c-0.2-0.1-0.5-0.1-0.7-0.2l-0.2-0.1l0,0c-0.5-0.1-1.1-0.2-1.7-0.2h-3.3
				c-0.6,0-1.1,0.1-1.7,0.2l0,0l-0.2,0.1c-0.2,0.1-0.4,0.1-0.6,0.2l-0.3,0.1c0,0-2.9,0.8-5.7,2.2c-1.4,0.7-2.9,1.6-4,2.6
				c-1.1,1-2,2.3-2,3.7c0,0.1,0,0.2,0,0.3c0.5,5.2,4.6,11.6,4.6,11.7l0.7,1.1l0.9-2.6c0.3,4.3,3.9,7.7,8.3,7.7h3.3l0,0
				c4.4,0,8-3.4,8.3-7.7l0.9,2.6l0.7-1.1c0,0,4.1-6.5,4.6-11.7c0-0.1,0-0.2,0-0.3C-1078.3,1495.8-1079.1,1494.6-1080.2,1493.5z
				 M-1104.5,1496.6v7.3l-1.2,3.5c-1.2-2.1-3.4-6.5-3.7-9.9c0-0.1,0-0.1,0-0.2c0-0.9,0.6-1.9,1.5-2.8c1.3-1.2,3.4-2.3,5.2-3.1
				C-1103.8,1492.9-1104.5,1494.7-1104.5,1496.6z M-1085.8,1507.2c0,3.9-3.2,7.1-7.1,7.1h-3.3c-3.9,0-7.1-3.2-7.1-7.1v-10.6
				c0-3.9,3.2-7.1,7.1-7.1h3.3c3.9,0,7.1,3.2,7.1,7.1V1507.2L-1085.8,1507.2z M-1079.6,1497.5c-0.2,2.3-1.3,5.1-2.4,7.3
				c-0.5,1-1,1.9-1.4,2.6l-1.2-3.5v-7.3c0-2-0.7-3.8-1.8-5.2c1.2,0.5,2.4,1.1,3.5,1.8c1.9,1.2,3.3,2.7,3.3,4.1
				C-1079.5,1497.3-1079.5,1497.4-1079.6,1497.5z"/>
		</g>
	</g>
</g>
<g class="st1">
	<g class="st2">
		<g>
			<path d="M-1092.1,1507.9c-0.4,0.3-0.7,0.3-1,0.4c-0.3,0-0.5-0.1-0.7-0.2l0,0v-1.2c1.1-0.9,3-2.9-0.6-2.9c-3.5,0-1.7,1.9-0.6,2.9
				v1.2c-0.2,0.1-0.4,0.2-0.7,0.2s-0.6-0.1-1-0.4c-0.3-0.2-0.7-0.1-0.8,0.2c-0.2,0.3-0.1,0.7,0.2,0.8c0.6,0.4,1.2,0.6,1.7,0.6l0,0
				c0.6,0,1-0.2,1.3-0.3c0.3,0.2,0.8,0.3,1.3,0.3l0,0c0.5,0,1.1-0.2,1.7-0.6c0.3-0.2,0.4-0.6,0.2-0.8
				C-1091.4,1507.7-1091.8,1507.7-1092.1,1507.9z M-1099.3,1501c-0.8,0-1.4,0.6-1.4,1.4s0.6,1.4,1.4,1.4s1.4-0.6,1.4-1.4
				C-1097.9,1501.6-1098.5,1501-1099.3,1501z M-1089.6,1501c-0.8,0-1.4,0.6-1.4,1.4s0.6,1.4,1.4,1.4c0.8,0,1.4-0.6,1.4-1.4
				S-1088.9,1501-1089.6,1501z M-1078.9,1511.4l-4.3-1.5c0.3-0.5,0.6-1,0.8-1.5h3.4c0.3,0,0.6-0.3,0.6-0.6s-0.3-0.6-0.6-0.6h-2.9
				c0.2-0.7,0.3-1.4,0.4-2.1l2.6-0.9c0.3-0.1,0.5-0.5,0.4-0.8s-0.5-0.5-0.8-0.4l-2.2,0.8c0-0.1,0-0.1,0-0.2
				c-0.1-1.6-0.6-3.3-1.3-4.8c0.6-3.7,1.9-4.9,3.1-7.1c0.2-0.4,0.3-0.8,0.3-1.2c0-0.5-0.2-0.9-0.5-1.2c-0.9-0.8-2.1-0.8-2.1-0.9
				c-0.2,0-0.5,0-0.7,0c-3.1,0-5.5,1.9-6.9,3.4c-1.5-0.7-3.2-1.1-4.9-1.2c-1.7,0-3.4,0.4-4.9,1.2c-1.4-1.5-3.8-3.4-6.9-3.4
				c-0.2,0-0.5,0-0.8,0c0,0-0.6,0-1.2,0.3c-0.3,0.1-0.6,0.3-0.9,0.6c-0.3,0.3-0.5,0.7-0.5,1.2c0,0.4,0.1,0.8,0.3,1.2
				c1.1,2.1,2.4,3.3,3.1,7.1c-0.7,1.5-1.2,3.2-1.3,4.8c0,0.1,0,0.1,0,0.2l-2.2-0.8c-0.3-0.1-0.7,0.1-0.8,0.4
				c-0.1,0.3,0.1,0.7,0.4,0.8l2.6,0.9c0.1,0.7,0.2,1.4,0.4,2.1h-2.9c-0.3,0-0.6,0.3-0.6,0.6c0,0.3,0.3,0.6,0.6,0.6h3.4
				c0.2,0.5,0.5,1,0.8,1.5l-4.3,1.5c-0.3,0.1-0.5,0.5-0.4,0.8c0.1,0.3,0.3,0.4,0.6,0.4c0.1,0,0.1,0,0.2,0l4.6-1.6
				c2.4,2.8,6.2,4.7,10.5,4.7c4.4,0,8.2-1.9,10.5-4.7l4.6,1.6c0.1,0,0.1,0,0.2,0c0.3,0,0.5-0.2,0.6-0.4
				C-1078.4,1511.8-1078.6,1511.5-1078.9,1511.4z M-1082.7,1489.6c0.2,0,0.4,0,0.6,0c0,0,0.1,0,0.3,0s0.6,0.1,0.9,0.3
				c0.3,0.2,0.3,0.3,0.4,0.5c0,0.1,0,0.3-0.2,0.6c-0.9,1.7-2.1,3.1-2.9,6c-0.4-0.6-0.8-1.2-1.3-1.7c0.3-1,0.7-1.5,1-2.1
				c0.4-0.8-0.7-0.9-0.7-0.9c-1-0.1-1.9,0.5-2.5,1c-0.5-0.4-0.9-0.7-1.4-1C-1087.2,1491.1-1085.1,1489.5-1082.7,1489.6z
				 M-1108.2,1491.1c-0.2-0.3-0.2-0.5-0.2-0.6c0-0.2,0-0.2,0.1-0.4c0.2-0.2,0.5-0.3,0.8-0.4c0.2,0,0.3-0.1,0.4-0.1
				c0.1,0,0.1,0,0.1,0c0.2,0,0.4,0,0.6,0l0,0c2.1,0,3.9,1.1,5.2,2.3c0.2,0.2,0.4,0.4,0.6,0.5c-0.5,0.3-1,0.6-1.4,1
				c-0.6-0.5-1.4-1.1-2.5-1c0,0-1.1,0.1-0.7,0.9c0.3,0.6,0.8,1.1,1,2.1c-0.5,0.5-0.9,1.1-1.3,1.7
				C-1106.1,1494.1-1107.3,1492.7-1108.2,1491.1z M-1084.4,1509.5l-1.6-0.5c-0.3-0.1-0.7,0.1-0.8,0.4c-0.1,0.3,0.1,0.7,0.4,0.8
				l1.2,0.4c-2.1,2.3-5.4,3.9-9.3,3.9c-3.9,0-7.2-1.6-9.3-3.9l1.2-0.4c0.3-0.1,0.5-0.5,0.4-0.8c-0.1-0.3-0.5-0.5-0.8-0.4l-1.6,0.5
				c-0.3-0.4-0.5-0.7-0.7-1.1h2.6c0.3,0,0.6-0.3,0.6-0.6s-0.3-0.6-0.6-0.6h-3.1c-0.2-0.5-0.3-1.1-0.4-1.7l3.2,1.1c0.1,0,0.1,0,0.2,0
				c0.3,0,0.5-0.2,0.6-0.4c0.1-0.3-0.1-0.7-0.4-0.8l-3.7-1.3c0-0.2,0-0.4,0-0.5c0.4-5.9,5.7-11.8,11.8-11.8
				c6.1,0,11.4,5.9,11.8,11.8c0,0.2,0,0.4,0,0.5l-3.7,1.3c-0.3,0.1-0.5,0.5-0.4,0.8c0.1,0.3,0.3,0.4,0.6,0.4c0.1,0,0.1,0,0.2,0
				l3.2-1.1c-0.1,0.6-0.2,1.1-0.4,1.7h-3.1c-0.3,0-0.6,0.3-0.6,0.6s0.3,0.6,0.6,0.6h2.6C-1083.9,1508.7-1084.1,1509.1-1084.4,1509.5
				z"/>
		</g>
	</g>
</g>
<g>
	<g>
		<g>
			<path class="st3" d="M-248.4,403.6c-0.4,0.4-0.9,0.4-1.2,0.4c-0.4,0-0.6-0.1-0.8-0.2l0,0v-1.4c1.3-1.1,3.5-3.4-0.7-3.4
				c-4.1,0-2,2.2-0.7,3.3v1.4c-0.2,0.1-0.5,0.2-0.9,0.2s-0.7-0.1-1.2-0.4c-0.4-0.2-0.7-0.2-1,0.2c-0.2,0.4-0.2,0.7,0.2,1
				c0.7,0.4,1.3,0.6,2,0.6l0,0c0.7,0,1.2-0.2,1.5-0.4c0.4,0.2,0.9,0.4,1.5,0.4l0,0c0.6,0,1.3-0.2,2-0.6c0.4-0.2,0.5-0.6,0.2-1
				C-247.7,403.5-248.1,403.4-248.4,403.6z M-256.8,395.6c-0.9,0-1.6,0.7-1.6,1.6c0,0.9,0.7,1.6,1.6,1.6s1.6-0.7,1.6-1.6
				S-255.9,395.6-256.8,395.6z M-245.5,395.6c-0.9,0-1.6,0.7-1.6,1.6c0,0.9,0.7,1.6,1.6,1.6s1.6-0.7,1.6-1.6
				S-244.6,395.6-245.5,395.6z M-233.1,407.7l-4.9-1.7c0.4-0.5,0.7-1.2,1-1.8h3.9c0.4,0,0.7-0.4,0.7-0.7c0-0.3-0.4-0.7-0.7-0.7h-3.4
				c0.3-0.8,0.4-1.6,0.4-2.4l3-1.1c0.4-0.1,0.5-0.5,0.4-0.9c-0.1-0.4-0.5-0.5-0.9-0.5l-2.5,0.9c0-0.1,0-0.2,0-0.2
				c-0.1-1.9-0.6-3.8-1.5-5.6c0.7-4.3,2.2-5.8,3.6-8.2c0.3-0.5,0.4-1,0.4-1.4c0-0.5-0.3-1.1-0.5-1.4c-1-1-2.4-1-2.4-1
				c-0.3,0-0.5,0-0.8,0c-3.6,0-6.4,2.2-8,4c-1.8-0.8-3.7-1.3-5.7-1.3s-4,0.5-5.7,1.3c-1.6-1.7-4.4-4-8-4c-0.3,0-0.5,0-0.9,0.1
				c0,0-0.6,0.1-1.4,0.4c-0.4,0.2-0.7,0.4-1.1,0.7c-0.4,0.4-0.5,0.8-0.5,1.4c0,0.4,0.2,0.9,0.4,1.4c1.4,2.4,2.8,3.9,3.6,8.2
				c-0.8,1.8-1.4,3.7-1.5,5.6c0,0.1,0,0.2,0,0.3l-2.5-0.9c-0.4-0.1-0.8,0.1-0.9,0.5c-0.1,0.4,0.1,0.8,0.5,0.9l3.1,1.1
				c0.1,0.8,0.2,1.7,0.4,2.4h-3.4c-0.4,0-0.7,0.3-0.7,0.7s0.4,0.7,0.7,0.7h4c0.3,0.6,0.6,1.2,1,1.8l-5,1.7c-0.4,0.1-0.5,0.5-0.5,0.9
				c0.1,0.3,0.4,0.5,0.6,0.5c0.1,0,0.2,0,0.3,0l5.4-1.9c2.7,3.2,7.2,5.4,12.2,5.5c5,0,9.5-2.2,12.2-5.5l5.4,1.9c0.1,0,0.2,0,0.3,0
				c0.3,0,0.5-0.2,0.6-0.5C-232.6,408.2-232.8,407.8-233.1,407.7z M-237.5,382.4c0.3,0,0.5,0,0.7,0c0,0,0.1,0,0.4,0.1
				c0.3,0.1,0.7,0.2,1,0.4c0.3,0.2,0.4,0.4,0.4,0.6s-0.1,0.4-0.3,0.7c-1.1,1.9-2.5,3.6-3.4,7c-0.4-0.7-0.9-1.4-1.4-2
				c-1-1.1-1.6-1.7-2.4-2.3c-0.5-0.4-1.1-0.8-1.7-1.2C-242.7,384.1-240.3,382.3-237.5,382.4z M-267.1,384.1
				c-0.2-0.4-0.3-0.5-0.3-0.7s0.1-0.3,0.2-0.5c0.2-0.2,0.5-0.4,0.9-0.4c0.2-0.1,0.4-0.1,0.5-0.1s0.2,0,0.2,0c0.3,0,0.5,0,0.7,0l0,0
				c2.4,0,4.5,1.3,6,2.6c0.3,0.2,0.4,0.5,0.6,0.6c-0.5,0.4-1.2,0.7-1.7,1.2c-0.7,0.7-1.1,1-2.4,2.3c-0.5,0.6-1.1,1.4-1.5,2
				C-264.7,387.7-266.1,386.1-267.1,384.1z M-239.4,405.5l-1.8-0.6c-0.4-0.1-0.8,0.1-0.9,0.5c-0.1,0.4,0.1,0.8,0.4,0.9l1.4,0.5
				c-2.4,2.7-6.3,4.5-10.8,4.5s-8.4-1.8-10.8-4.5l1.4-0.5c0.4-0.1,0.5-0.5,0.4-0.9c-0.1-0.4-0.5-0.5-0.9-0.5l-1.8,0.6
				c-0.3-0.4-0.5-0.8-0.8-1.3h3c0.4,0,0.7-0.4,0.7-0.7c0-0.4-0.4-0.7-0.7-0.7h-3.6c-0.2-0.6-0.4-1.3-0.5-2l3.7,1.3
				c0.1,0,0.2,0,0.3,0c0.3,0,0.5-0.2,0.6-0.4c0.1-0.4-0.1-0.8-0.4-0.9l-4.2-1.4c0-0.2,0-0.4,0-0.6c0.4-6.8,6.7-13.7,13.7-13.7
				c7,0,13.2,6.8,13.7,13.7c0,0.2,0,0.5,0,0.6l-4.2,1.4c-0.4,0.1-0.5,0.5-0.4,0.9c0.1,0.3,0.4,0.4,0.6,0.4c0.1,0,0.2,0,0.3,0
				l3.7-1.3c-0.1,0.6-0.3,1.4-0.4,2h-3.6c-0.4,0-0.7,0.4-0.7,0.7c0,0.4,0.4,0.7,0.7,0.7h3C-238.9,404.6-239.1,405-239.4,405.5z"/>
		</g>
	</g>
</g>
</svg>
