<?xml version="1.0" encoding="utf-8"?>
<!-- Generator: Adobe Illustrator 19.0.0, SVG Export Plug-In . SVG Version: 6.00 Build 0)  -->
<svg version="1.1" id="Layer_1" xmlns="http://www.w3.org/2000/svg" xmlns:xlink="http://www.w3.org/1999/xlink" x="0px" y="0px"
	 viewBox="-278 370 54 54" style="enable-background:new -278 370 54 54;" xml:space="preserve">
<style type="text/css">
	.st0{fill:#5D3089;}
	.st1{display:none;}
	.st2{display:inline;}
	.st3{fill:#F9F9F9;}
</style>
<rect id="XMLID_14_" x="-278" y="370" class="st0" width="54" height="54"/>
<g class="st1">
	<rect x="-1390.5" y="1854" class="st2" width="36" height="36"/>
</g>
<g class="st1">
	<g class="st2">
		<g>
			<path d="M-1364.2,1862.5c-0.6-2.2-2-4-4-5.2c-1.3-0.8-2.8-1.1-4.3-1.1c-0.7,0-1.5,0.1-2.2,0.3c-2.2,0.6-4,2-5.2,4
				c-0.8,1.3-1.1,2.8-1.1,4.3c0,0.7,0.1,1.5,0.3,2.2c0.3,1.2,1.4,2,2.5,1.9c0.2,0,0.5,0,0.7-0.1c1.2-0.3,2-1.4,2-2.5
				c0-0.2,0-0.5-0.1-0.7c-0.1-0.3-0.1-0.6-0.1-0.9c0-0.6,0.1-1.1,0.4-1.6c0.4-0.8,1.1-1.3,2-1.5c0.3-0.1,0.6-0.1,0.9-0.1
				c0.6,0,1.1,0.1,1.6,0.4c0.8,0.4,1.3,1.1,1.5,2c0.1,0.3,0.1,0.6,0.1,0.9c0,0.6-0.1,1.1-0.4,1.6l-10.3,17.8
				c-0.2,0.4-0.4,0.9-0.4,1.3l0,0l0,0c0,0.7,0.3,1.4,0.8,1.9v0.1l0.5,0.3l0,0l0.5,0.3v-0.1c0.2,0.1,0.5,0.1,0.7,0.1l0,0l0,0
				c0.9,0,1.8-0.5,2.3-1.3l10.5-17.8c0.8-1.3,1.1-2.8,1.1-4.3C-1363.9,1864-1364,1863.2-1364.2,1862.5z M-1365.8,1861.5
				c-0.1-0.2-0.2-0.3-0.3-0.5C-1366,1861.2-1365.9,1861.3-1365.8,1861.5z M-1379.5,1863.1c-0.1,0.4-0.2,0.9-0.2,1.3
				C-1379.7,1864-1379.6,1863.5-1379.5,1863.1z M-1377.7,1867.6c-0.1,0-0.2,0-0.4,0c-0.6,0-1.2-0.4-1.4-1c-0.2-0.6-0.3-1.3-0.3-1.9
				c0-0.1,0-0.2,0-0.3c0,0.5,0,0.9,0.1,1.4l2.8-0.7c0-0.1,0-0.2,0-0.2c0,0.3,0.1,0.7,0.1,1c0,0.1,0,0.2,0,0.4
				C-1376.7,1866.9-1377.1,1867.4-1377.7,1867.6z M-1376.9,1864.6c0-0.1,0-0.2,0-0.3C-1376.9,1864.4-1376.9,1864.5-1376.9,1864.6z
				 M-1376.8,1864.1c0-0.1,0.1-0.3,0.1-0.4C-1376.8,1863.8-1376.8,1863.9-1376.8,1864.1z M-1376.7,1863.5c0-0.1,0.1-0.3,0.2-0.4
				C-1376.6,1863.2-1376.7,1863.3-1376.7,1863.5z M-1376.5,1862.9c0.1-0.2,0.1-0.3,0.2-0.5l0,0
				C-1376.4,1862.6-1376.5,1862.8-1376.5,1862.9z M-1372.4,1860.2c-0.4,0-0.8,0.1-1.2,0.2c-1,0.3-1.9,0.9-2.5,1.8l-3.4,0.9
				c0.2-0.7,0.4-1.4,0.8-2c0.4-0.7,0.9-1.3,1.5-1.8c-0.1,0-0.1,0.1-0.2,0.1l6.8-1.8c-1.2-0.3-2.5-0.3-3.7,0l0,0l0,0
				c0.6-0.2,1.3-0.3,1.9-0.3c1.3,0,2.5,0.3,3.6,1c1.1,0.6,1.9,1.5,2.6,2.5c-0.2-0.4-0.5-0.8-0.8-1.1l-3.4,0.9c0.1,0,0.2,0.1,0.3,0.1
				C-1370.9,1860.4-1371.6,1860.2-1372.4,1860.2z M-1374.9,1857.9c-0.1,0-0.1,0-0.2,0.1C-1375,1857.9-1375,1857.9-1374.9,1857.9z
				 M-1375.6,1858.1L-1375.6,1858.1C-1375.7,1858.2-1375.7,1858.2-1375.6,1858.1z M-1376.2,1858.4c-0.1,0-0.1,0.1-0.2,0.1
				C-1376.3,1858.5-1376.2,1858.5-1376.2,1858.4z M-1376.8,1858.9c-0.1,0-0.1,0.1-0.2,0.1C-1376.9,1859-1376.8,1858.9-1376.8,1858.9
				z M-1370.1,1860.9c0.1,0.1,0.2,0.1,0.3,0.2C-1369.9,1861-1370,1860.9-1370.1,1860.9z M-1369.4,1861.4c0.1,0.1,0.1,0.1,0.2,0.2
				C-1369.3,1861.5-1369.3,1861.5-1369.4,1861.4z M-1369.7,1861.1c0.1,0.1,0.1,0.1,0.2,0.2
				C-1369.6,1861.2-1369.6,1861.2-1369.7,1861.1z M-1378.5,1886.6c0,0,0.1,0.1,0.2,0.1C-1378.4,1886.7-1378.4,1886.7-1378.5,1886.6z
				 M-1377.6,1886.9L-1377.6,1886.9L-1377.6,1886.9L-1377.6,1886.9L-1377.6,1886.9z M-1378.3,1886.8c0.1,0,0.1,0.1,0.2,0.1
				C-1378.1,1886.8-1378.2,1886.8-1378.3,1886.8z M-1378,1886.9c0.1,0,0.1,0,0.2,0C-1377.9,1886.9-1377.9,1886.9-1378,1886.9z
				 M-1376.7,1886.6C-1376.6,1886.6-1376.6,1886.5-1376.7,1886.6L-1376.7,1886.6z M-1377.4,1886.9c0.1,0,0.1,0,0.2,0
				C-1377.3,1886.9-1377.4,1886.9-1377.4,1886.9z M-1377.2,1886.9c0.1,0,0.1,0,0.2-0.1C-1377.1,1886.8-1377.1,1886.9-1377.2,1886.9z
				 M-1376.9,1886.8c0.1,0,0.1-0.1,0.2-0.1C-1376.8,1886.7-1376.9,1886.7-1376.9,1886.8z M-1376.5,1886.4c0-0.1,0.1-0.1,0.1-0.2
				C-1376.4,1886.3-1376.5,1886.4-1376.5,1886.4z M-1368,1871.7l-3.8,1l-1.9,3.2l3.8-1l-2.1,3.6l-3.8,1l-1.7,3l3.8-1l-2.1,3.6
				l-3.1,0.8c0.1,0.2,0.2,0.4,0.4,0.6c-0.3-0.2-0.5-0.6-0.5-1l0,0v-0.1c0-0.2,0.1-0.5,0.2-0.7l10.3-17.9c0-0.1,0.1-0.2,0.1-0.2
				c0,0.1-0.1,0.2-0.1,0.2l-1.2,2.1l3.8-1c0.4-0.8,0.7-1.7,0.8-2.6c-0.1,1-0.4,2-0.9,2.9L-1368,1871.7z M-1369.1,1861.7
				L-1369.1,1861.7C-1369,1861.8-1369,1861.7-1369.1,1861.7z M-1368.7,1862.2L-1368.7,1862.2L-1368.7,1862.2z M-1365.1,1865.5
				c0-0.1,0-0.3,0-0.4l-3,0.8c0.1-0.4,0.1-0.8,0.2-1.1c0-0.4-0.1-0.8-0.2-1.2c-0.1-0.2-0.2-0.5-0.3-0.7l0,0l2.8-0.7
				c0.1,0.2,0.2,0.5,0.2,0.7c0.2,0.6,0.3,1.3,0.3,1.9C-1365.1,1865-1365.1,1865.2-1365.1,1865.5z M-1368.5,1862.5
				C-1368.5,1862.5-1368.5,1862.6-1368.5,1862.5C-1368.5,1862.6-1368.5,1862.5-1368.5,1862.5z"/>
		</g>
	</g>
</g>
<g class="st1">
	<g class="st2">
		<g>
			<path d="M-1356.3,1861c0-1.6-0.4-2.9-1.1-3.7c-0.8-0.8-1.8-1.1-2.9-1.1c-2.8,0-6.2,1.9-8.5,3.6c-1.2-0.3-2.4-0.5-3.7-0.5l0,0
				c-1.2,0-2.3,0.2-3.4,0.4c-2.3-1.7-5.7-3.5-8.4-3.5c-1.1,0-2.2,0.3-2.9,1.1c-0.8,0.8-1.1,2.1-1.1,3.7c0,2,0.5,4.6,1.8,8.2
				c-0.6,1.5-0.9,3.1-0.9,4.8v0.1c0,7.6,6.8,13.7,15.1,13.8c8.1-0.1,14.8-6,15.1-13.4l0,0v-0.5c0-1.5-0.3-2.9-0.7-4.3
				C-1356.9,1865.9-1356.3,1863.1-1356.3,1861z M-1363.9,1875.1c0.1,0.3,0.3,0.6,0.7,0.6h0.1l4.1-0.7c-0.1,0.6-0.2,1.2-0.3,1.8
				l-4.1,0.7c-0.4,0.1-0.6,0.4-0.6,0.8c0.1,0.3,0.4,0.6,0.7,0.6h0.1l3.4-0.6c-1.9,4.7-6.9,8.2-12.9,8.3c-6,0-11-3.6-12.9-8.3
				l3.7,0.6h0.1c0.3,0,0.6-0.2,0.7-0.6s-0.2-0.7-0.6-0.8l-4.4-0.7l0,0c-0.1-0.6-0.2-1.2-0.3-1.8l4.5,0.8h0.1c0.3,0,0.6-0.2,0.7-0.6
				s-0.2-0.7-0.6-0.8l-4.7-0.8c0.1-1.4,0.4-2.7,0.9-4l0.1-0.2l-0.1-0.2c-1.3-3.6-1.8-6.2-1.8-7.9c0-1.4,0.3-2.3,0.8-2.8
				c0.4-0.5,1.1-0.7,1.9-0.7c2.3,0,5.7,1.8,7.9,3.4l0.3,0.2l0.3-0.1c0.9-0.2,1.8-0.4,2.7-0.4v1.5h-4.3c-0.4,0-0.7,0.3-0.7,0.7
				s0.3,0.7,0.7,0.7h4.3v1.4h-4.3c-0.4,0-0.7,0.3-0.7,0.7s0.3,0.7,0.7,0.7h4.3v1.4h-4.3c-0.4,0-0.7,0.3-0.7,0.7s0.3,0.7,0.7,0.7h4.3
				v1.4c0,0.4,0.3,0.7,0.7,0.7s0.7-0.3,0.7-0.7v-1.4h4.4c0.4,0,0.7-0.3,0.7-0.7s-0.3-0.7-0.7-0.7h-4.4v-1.4h4.4
				c0.4,0,0.7-0.3,0.7-0.7s-0.3-0.7-0.7-0.7h-4.4v-1.4h4.4c0.4,0,0.7-0.3,0.7-0.7s-0.3-0.7-0.7-0.7h-4.4v-1.5c1,0.1,2,0.2,3,0.5
				l0.3,0.1l0.3-0.2c2.2-1.6,5.7-3.5,8-3.5c0.9,0,1.5,0.2,1.9,0.7s0.8,1.3,0.8,2.8c0,1.8-0.6,4.6-2,8.5l-0.1,0.2l0.1,0.2
				c0.4,1.2,0.7,2.3,0.7,3.6l-4.4,0.7C-1363.7,1874.4-1364,1874.7-1363.9,1875.1z M-1367.3,1879.9c-0.4,0-0.7,0.3-0.7,0.7
				c0,0.2-0.3,0.7-1.2,1.1c-0.7,0.3-1.7,0.6-2.8,0.6v-3.3c0.7-0.7,1.7-1.4,2.2-2c0.1-0.2,0.2-0.4,0.1-0.6s-0.3-0.3-0.5-0.4
				c-0.8-0.1-1.6-0.1-2.5-0.1s-1.6,0-2.5,0.1c-0.2,0-0.4,0.2-0.5,0.4c-0.1,0.2-0.1,0.4,0.1,0.6c0.5,0.7,1.5,1.4,2.2,2v3.3
				c-1.1-0.1-2.1-0.3-2.8-0.6c-0.9-0.4-1.2-0.9-1.2-1.1c0-0.4-0.3-0.7-0.7-0.7c-0.4,0-0.7,0.3-0.7,0.7c0,1.1,0.9,1.9,2,2.4
				s2.5,0.8,4.1,0.8s3-0.3,4.1-0.8s1.9-1.2,2-2.4C-1366.6,1880.3-1366.9,1879.9-1367.3,1879.9z M-1384.3,1866c0,0.1,1.5-2.7,4.9-4
				C-1381.9,1859.7-1387.5,1857.1-1384.3,1866z M-1360.7,1866c3.1-8.8-2.4-6.3-4.9-4C-1362.2,1863.2-1360.7,1866-1360.7,1866z
				 M-1377.7,1873.9c0.8,0,1.4-0.6,1.4-1.4s-0.6-1.4-1.4-1.4c-0.2,0-0.4,0-0.6,0.1l-1.7-0.5l0.8,1.6c0,0.1,0,0.1,0,0.2
				C-1379.1,1873.2-1378.5,1873.9-1377.7,1873.9z M-1367,1871.1c-0.2-0.1-0.4-0.1-0.6-0.1c-0.8,0-1.4,0.6-1.4,1.4s0.6,1.4,1.4,1.4
				s1.4-0.6,1.4-1.4c0-0.1,0-0.1,0-0.2l0.8-1.6L-1367,1871.1z"/>
		</g>
	</g>
</g>
<g class="st1">
	<g class="st2">
		<g>
			<path d="M-1377.6,1870.3c-0.6,0-1.1,0.5-1.1,1.1s0.5,1.1,1.1,1.1s1.1-0.5,1.1-1.1C-1376.5,1870.7-1377,1870.3-1377.6,1870.3z
				 M-1367.2,1870.3c-0.6,0-1.1,0.5-1.1,1.1s0.5,1.1,1.1,1.1s1.1-0.5,1.1-1.1C-1366.1,1870.7-1366.6,1870.3-1367.2,1870.3z
				 M-1358.3,1859.2c-1.3-1.2-3.1-1.8-5-1.8h-0.1h-0.1c-1.9,0-3.7,0.6-5,1.8c-0.4,0.4-0.8,0.9-1.1,1.4c-0.9-0.3-1.8-0.4-2.8-0.4
				s-1.9,0.2-2.8,0.4c-0.3-0.5-0.7-1-1.1-1.4c-1.3-1.2-3.1-1.8-5-1.8h-0.1c0,0,0,0-0.1,0c-1.9,0-3.7,0.6-5,1.8
				c-1.3,1.2-2.1,3-2.1,5.1l0,0c0,3,1.6,5.6,3.9,6.9c-0.2,0.8-0.3,1.7-0.4,2.6c0,0.2,0,0.5,0,0.7c0,6.6,5.6,12,12.7,12
				c7.2-0.1,12.8-5.4,12.8-12c0-0.2,0-0.5,0-0.7h-0.6h-0.6c0,0.2,0,0.4,0,0.6c0,5.9-5,10.7-11.5,10.8c-6.5-0.1-11.5-4.9-11.5-10.8
				c0-0.2,0-0.4,0-0.6c0.4-6.3,5.6-12.4,11.4-12.4s11.1,6.1,11.4,12.4l1.3-0.1c-0.1-0.9-0.2-1.7-0.4-2.6c2.3-1.3,3.8-3.9,3.8-6.9
				l0,0C-1356.2,1862.2-1357,1860.4-1358.3,1859.2z M-1382.7,1866.5c-0.6-0.4-1.1-1.2-1.1-2.2l0,0c0-1.5,0.9-2.2,2.3-2.2l0,0l0,0
				l0,0l0,0c0.8,0,1.5,0.3,1.9,0.9C-1380.8,1864-1381.8,1865.2-1382.7,1866.5z M-1378.5,1862.2c-0.1-0.2-0.3-0.3-0.4-0.5
				c-0.7-0.6-1.6-0.9-2.5-0.9l0,0l0,0c-1,0-1.9,0.3-2.5,0.9c-0.7,0.6-1.1,1.5-1.1,2.6l0,0c0,1.4,0.7,2.6,1.7,3.3
				c-0.4,0.8-0.7,1.5-1,2.3c-1.8-1.1-3-3.1-3-5.6l0,0l0,0c0-3.6,2.5-5.6,5.8-5.7c0,0,0,0,0.1,0l0,0l0,0h0.1c2.1,0,3.9,0.9,4.9,2.4
				C-1377.2,1861.4-1377.9,1861.8-1378.5,1862.2z M-1362.1,1866.5c-0.9-1.4-1.9-2.6-3.2-3.6c0.4-0.5,1-0.8,1.8-0.8l0,0l0,0l0,0l0,0
				c1.4,0,2.3,0.8,2.3,2.2l0,0l0,0C-1361.1,1865.3-1361.5,1866-1362.1,1866.5z M-1357.5,1864.3c0,2.5-1.2,4.5-2.9,5.6
				c-0.3-0.8-0.6-1.6-1-2.3c1-0.7,1.7-1.9,1.7-3.3l0,0c0-1.1-0.4-2-1.1-2.6s-1.6-0.9-2.5-0.9l0,0l0,0c-1,0-1.9,0.3-2.5,0.9
				c-0.1,0.1-0.3,0.3-0.4,0.4c-0.7-0.4-1.3-0.8-2.1-1.1c1-1.6,2.8-2.4,4.9-2.4h0.1l0,0h0.1
				C-1360,1858.7-1357.6,1860.7-1357.5,1864.3L-1357.5,1864.3L-1357.5,1864.3z M-1372.4,1870.3L-1372.4,1870.3L-1372.4,1870.3
				c-1.2,0-2.3,0.5-3,1.4s-1.2,2.1-1.2,3.5l0,0c0,1.4,0.4,2.6,1.2,3.4c0.7,0.8,1.8,1.2,2.9,1.2l0,0l0,0l0,0l0,0
				c1.1,0,2.1-0.4,2.9-1.2c0.8-0.8,1.2-2,1.2-3.4l0,0l0,0c0-1.4-0.4-2.6-1.2-3.5C-1370.2,1870.9-1371.2,1870.3-1372.4,1870.3z
				 M-1369.6,1875.3c0,2.3-1.2,3.3-2.8,3.3l0,0l0,0c-1.6,0-2.8-1-2.8-3.3l0,0c0-2.3,1.3-3.7,2.8-3.7l0,0l0,0l0,0
				C-1370.9,1871.6-1369.6,1873-1369.6,1875.3L-1369.6,1875.3z"/>
		</g>
	</g>
</g>
<g class="st1">
	<g class="st2">
		<g>
			<path d="M-1364.7,1869.4c0-3.6-3.6-6.3-7.9-6.3c-4.2,0-7.8,2.7-7.9,6.3c0,0.9,0.2,1.7,0.6,2.4c-0.9,1-1.4,2.3-1.4,3.7
				c0,1.9,1,3.6,2.6,4.8c1.6,1.2,3.7,1.9,6.1,1.9s4.5-0.7,6.1-1.9c1.6-1.2,2.6-2.9,2.6-4.8c0-1.4-0.5-2.6-1.4-3.7
				C-1364.9,1871.1-1364.7,1870.3-1364.7,1869.4z M-1365,1875.5c0,1.5-0.8,2.8-2.1,3.8c-1.4,1-3.3,1.7-5.4,1.7s-4-0.6-5.4-1.7
				c-1.4-1-2.1-2.4-2.1-3.8c0-1.2,0.5-2.3,1.4-3.2l0.3-0.3l-0.2-0.4c-0.4-0.7-0.6-1.4-0.6-2.2c0-1.4,0.7-2.6,1.9-3.6
				c1.2-0.9,2.9-1.5,4.8-1.5l0,0c1.9,0,3.6,0.6,4.8,1.5s1.9,2.2,1.9,3.6c0,0.8-0.2,1.5-0.6,2.2l-0.2,0.4l0.3,0.3
				C-1365.5,1873.3-1365,1874.4-1365,1875.5z M-1375.2,1872c0.5,0,0.9-0.4,0.9-0.9s-0.4-0.9-0.9-0.9s-0.9,0.4-0.9,0.9
				S-1375.7,1872-1375.2,1872z M-1369,1871.1c0-0.5-0.4-0.9-0.9-0.9s-0.9,0.4-0.9,0.9s0.4,0.9,0.9,0.9S-1369,1871.6-1369,1871.1z
				 M-1375.7,1867.1c0.3,0,0.4,0,0.6,0.1s0.5,0.1,1,0.1s0.8-0.1,1-0.1c0.2-0.1,0.3-0.1,0.6-0.1c0.3,0,0.4,0,0.6,0.1s0.5,0.1,1,0.1
				l0,0c0.4,0,0.7-0.1,0.9-0.1c0.2-0.1,0.3-0.1,0.6-0.1c0.3,0,0.6-0.3,0.6-0.6s-0.3-0.6-0.6-0.6c-0.5,0-0.8,0.1-1,0.1
				c-0.2,0.1-0.3,0.1-0.6,0.1c-0.3,0-0.4,0-0.6-0.1s-0.5-0.1-1-0.1s-0.8,0.1-1,0.1c-0.2,0.1-0.3,0.1-0.6,0.1c-0.3,0-0.4,0-0.6-0.1
				s-0.5-0.1-1-0.1c-0.3,0-0.6,0.3-0.6,0.6C-1376.3,1866.8-1376.1,1867.1-1375.7,1867.1z M-1375.7,1868.9c0.3,0,0.4,0,0.6,0.1
				s0.5,0.1,1,0.1l0,0c0.4,0,0.7-0.1,0.9-0.1c0.2-0.1,0.3-0.1,0.6-0.1c0.3,0,0.4,0,0.6,0.1s0.5,0.1,1,0.1s0.8-0.1,1-0.1
				c0.2-0.1,0.3-0.1,0.6-0.1c0.3,0,0.6-0.3,0.6-0.6s-0.3-0.6-0.6-0.6c-0.5,0-0.8,0.1-1,0.1c-0.2,0.1-0.3,0.1-0.6,0.1
				c-0.3,0-0.4,0-0.6-0.1s-0.5-0.1-1-0.1s-0.8,0.1-1,0.1c-0.2,0.1-0.3,0.1-0.6,0.1c-0.3,0-0.4,0-0.6-0.1s-0.5-0.1-1-0.1
				c-0.3,0-0.6,0.3-0.6,0.6C-1376.3,1868.6-1376.1,1868.9-1375.7,1868.9z M-1373.9,1874.3c-0.3,0.1-0.3,0.5-0.1,0.9s0.5,0.6,0.8,0.5
				s0.3-0.5,0.1-0.9S-1373.7,1874.2-1373.9,1874.3z M-1371.9,1874.8c-0.2,0.4-0.1,0.8,0.1,0.9c0.3,0.1,0.6-0.1,0.8-0.5
				c0.2-0.4,0.1-0.8-0.1-0.9C-1371.4,1874.2-1371.7,1874.4-1371.9,1874.8z M-1370,1876.2c0.1,0.1,0.2,0.1,0.3,0.1
				c0.2,0,0.4-0.1,0.5-0.3c0.2-0.3,0.3-0.7,0.3-1.1s-0.1-0.8-0.3-1.1c-0.2-0.3-0.5-0.6-0.8-0.9s-0.7-0.4-1.2-0.5
				c-0.4-0.1-0.9-0.2-1.4-0.2s-0.9,0.1-1.4,0.2c-0.4,0.1-0.8,0.3-1.2,0.5c-0.3,0.2-0.6,0.5-0.8,0.9c-0.2,0.3-0.3,0.7-0.3,1.1
				s0.1,0.8,0.3,1.1c0.2,0.3,0.5,0.4,0.8,0.2c0.3-0.2,0.4-0.5,0.2-0.8c-0.1-0.2-0.2-0.3-0.2-0.5s0.1-0.3,0.2-0.5s0.3-0.3,0.5-0.5
				s0.5-0.3,0.8-0.4s0.7-0.1,1-0.1s0.7,0.1,1,0.1c0.3,0.1,0.6,0.2,0.8,0.4c0.2,0.2,0.4,0.3,0.5,0.5s0.2,0.3,0.2,0.5
				s-0.1,0.3-0.2,0.5C-1370.3,1875.6-1370.2,1876-1370,1876.2z M-1369.3,1877.3L-1369.3,1877.3c-0.4,0.3-0.9,0.5-1.4,0.7
				c-0.6,0.2-1.2,0.3-1.8,0.3s-1.3-0.1-1.8-0.3c-0.6-0.2-1-0.4-1.4-0.7c-0.3-0.2-0.6-0.1-0.8,0.1c-0.2,0.3-0.1,0.6,0.1,0.8
				c0.5,0.4,1.1,0.7,1.8,0.8c0.7,0.2,1.4,0.3,2.1,0.3s1.5-0.1,2.1-0.3c0.7-0.2,1.3-0.5,1.8-0.8c0.3-0.2,0.3-0.6,0.1-0.8
				C-1368.7,1877.2-1369,1877.1-1369.3,1877.3z M-1359.9,1865.1c-0.1,0-0.1,0-0.2,0c-0.9,0-1.6,0.3-2.3,0.8
				c-2.3-4.2-6.2-6.8-10.1-6.9c-4,0-7.8,2.7-10.1,6.9c-0.6-0.5-1.4-0.8-2.3-0.9c-0.1,0-0.1,0-0.2,0c-2,0.1-3.5,2-3.5,4.1
				c0,0.1,0,0.2,0,0.3c0.1,2.1,1.7,3.9,3.8,3.9h0.1l0,0c0,3.1,1.3,6.1,3.4,8.3c2.2,2.2,5.2,3.6,8.8,3.6s6.6-1.4,8.8-3.6
				c2.2-2.2,3.4-5.1,3.4-8.3l0,0h0.1c2,0,3.6-1.7,3.8-3.9l0,0c0-0.1,0-0.2,0-0.3C-1356.4,1867-1357.9,1865.2-1359.9,1865.1z
				 M-1384.6,1872.1C-1384.7,1872.1-1384.7,1872.1-1384.6,1872.1c-0.1,0-0.2,0-0.2,0c-1.3,0-2.5-1.2-2.6-2.8l0,0c0-0.1,0-0.1,0-0.2
				c0-1.6,1.1-2.8,2.4-2.9h0.1c0.6,0,1.3,0.3,1.7,0.8c-0.6,1.3-1,2.6-1.3,4.1C-1384.6,1871.4-1384.6,1871.7-1384.6,1872.1z
				 M-1372.5,1883.9c-6.5,0-11-5-11-10.7c0-0.7,0.1-1.3,0.2-2c1.2-6.6,6.2-11.1,10.8-11.1c4.7,0,9.6,4.5,10.8,11.1l0,0
				c0.1,0.7,0.2,1.3,0.2,2C-1361.5,1878.9-1366,1883.9-1372.5,1883.9z M-1357.6,1869.3c-0.1,1.6-1.3,2.8-2.6,2.8h-0.1c0,0,0,0-0.1,0
				c0-0.3-0.1-0.7-0.1-1c-0.3-1.5-0.7-2.8-1.3-4.1c0.5-0.5,1.1-0.8,1.7-0.8l0,0h0.1c1.3,0.1,2.4,1.3,2.4,2.9
				C-1357.6,1869.2-1357.6,1869.2-1357.6,1869.3L-1357.6,1869.3z"/>
		</g>
	</g>
</g>
<g class="st1">
	<g class="st2">
		<g>
			<path d="M-1372.6,1869.8c-4.3,0-7.8,3-7.8,6.8s3.6,6.8,7.8,6.8c4.3,0,7.8-3,7.8-6.8S-1368.4,1869.8-1372.6,1869.8z
				 M-1367.9,1880.5c-1.2,1-2.9,1.7-4.7,1.7c-1.9,0-3.5-0.6-4.7-1.7c-1.2-1-1.9-2.4-1.9-3.9s0.7-2.9,1.9-3.9s2.9-1.7,4.7-1.7
				c1.9,0,3.5,0.6,4.7,1.7c1.2,1,1.9,2.4,1.9,3.9S-1366.7,1879.5-1367.9,1880.5z M-1365.5,1869c-0.7,0-1.2,0.5-1.2,1.2
				s0.5,1.2,1.2,1.2s1.2-0.5,1.2-1.2S-1364.8,1869-1365.5,1869z M-1378.6,1870.2c0-0.7-0.5-1.2-1.2-1.2s-1.2,0.5-1.2,1.2
				s0.5,1.2,1.2,1.2C-1379.2,1871.4-1378.6,1870.8-1378.6,1870.2z M-1372.6,1871.8c-1.3,0-2.3,1-2.3,2.3s1,2.3,2.3,2.3
				s2.3-1,2.3-2.3S-1371.4,1871.8-1372.6,1871.8z M-1356.4,1863.4c0-3-2.4-5.4-5.4-5.4c-2.4,0-4.4,1.5-5.1,3.7
				c-1.8-0.8-3.7-1.2-5.8-1.2c-2,0-3.9,0.4-5.6,1.1c-0.7-2.1-2.7-3.6-5.1-3.6c-3,0-5.4,2.4-5.4,5.4c0,2.2,1.4,4.2,3.3,5
				c-0.7,1.5-1,3.2-1,4.9c0,7.1,6.2,12.8,13.8,12.8c7.6,0,13.8-5.7,13.8-12.8c0-1.7-0.4-3.3-1-4.8
				C-1357.8,1867.7-1356.4,1865.7-1356.4,1863.4z M-1387.5,1863.4c0-2.3,1.9-4.2,4.2-4.2c1.9,0,3.4,1.2,4,2.9
				c-2.3,1.2-4.2,3-5.5,5.2C-1386.4,1866.6-1387.5,1865.1-1387.5,1863.4z M-1363.8,1881.4c-2.3,2.1-5.4,3.4-8.9,3.4
				s-6.6-1.3-8.9-3.4s-3.7-5-3.7-8.2s1.4-6.1,3.7-8.2c2.3-2.1,5.4-3.4,8.9-3.4l0,0c3.5,0,6.6,1.3,8.9,3.4s3.7,5,3.7,8.2
				S-1361.5,1879.3-1363.8,1881.4z M-1360.4,1867.3c-1.2-2.2-3.1-3.9-5.3-5.1c0.5-1.7,2.1-3,4-3c2.3,0,4.2,1.9,4.2,4.2
				C-1357.6,1865.2-1358.8,1866.8-1360.4,1867.3z"/>
		</g>
	</g>
</g>
<g class="st1">
	<g class="st2">
		<g>
			<path d="M-1376.4,1872.2c0.6,0,1-0.5,1-1c0-0.6-0.5-1-1-1s-1,0.5-1,1S-1376.9,1872.2-1376.4,1872.2z M-1368.4,1872.2
				c0.6,0,1-0.5,1-1c0-0.6-0.5-1-1-1c-0.6,0-1,0.5-1,1S-1369,1872.2-1368.4,1872.2z M-1370.5,1884.3c0.1,0,0.1,0,0.2,0
				c0.2,0,0.5-0.1,0.5-0.4l0.5-1.3c0.1-0.3,0-0.6-0.3-0.7s-0.6,0-0.7,0.3l-0.5,1.3C-1371,1883.9-1370.8,1884.2-1370.5,1884.3z
				 M-1375.2,1884c0.1,0.2,0.3,0.4,0.5,0.4c0.1,0,0.1,0,0.2,0c0.3-0.1,0.5-0.4,0.3-0.7l-0.5-1.3c-0.1-0.3-0.4-0.5-0.7-0.3
				c-0.3,0.1-0.5,0.4-0.3,0.7L-1375.2,1884z M-1359.7,1866.1c0-1-0.3-1.7-0.4-1.7c-0.1-0.3-0.5-0.4-0.8-0.3l-5.9,2.8
				c-0.8-0.9-1.9-1.6-3.1-2.1l0.5-3c1.4,0,2.6-1,2.8-2.4l0,0c0-0.2,0-0.3,0-0.5c0-1.4-1-2.7-2.4-2.9c-0.2,0-0.3,0-0.5,0
				c-1.4,0-2.7,1-2.9,2.4c0,0.2,0,0.3,0,0.5c0,1.2,0.8,2.3,1.9,2.8l-0.5,2.9c-0.5-0.1-1.1-0.2-1.6-0.2c-0.1,0-0.3,0-0.4,0l0,0h-0.1
				c-0.2,0-0.3,0-0.5,0h-0.1c0,0,0,0-0.1,0s-0.2,0-0.4,0.1c-0.1,0-0.2,0-0.2,0l-0.5-3c1.1-0.4,1.9-1.5,1.9-2.8c0-0.2,0-0.3,0-0.5
				l0,0c-0.3-1.4-1.5-2.4-2.9-2.4c-0.2,0-0.3,0-0.5,0c-1.4,0.3-2.4,1.5-2.4,2.9c0,0.2,0,0.3,0,0.5c0.2,1.4,1.5,2.4,2.9,2.4l0.5,3.1
				c-1.3,0.5-2.2,1.2-2.9,2l-5.8-2.7c-0.3-0.1-0.6,0-0.8,0.3c0,0.1-0.4,0.7-0.4,1.7c0,1.7,0.9,4.3,5,6.6c-0.2,2.5-0.3,5.1-0.5,7.6
				c0,0.2,0,0.4,0,0.5c0,4.2,3.6,7.4,8.2,7.4s8.2-3.3,8.2-7.4c0-0.2,0-0.4,0-0.6c-0.2-2.5-0.3-5-0.5-7.6
				C-1360.6,1870.4-1359.7,1867.8-1359.7,1866.1z M-1371.1,1858.8c0-0.1,0-0.2,0-0.3c0.2-0.9,0.9-1.5,1.8-1.5c0.1,0,0.2,0,0.3,0
				c0.9,0.2,1.5,0.9,1.5,1.8v0.3l0,0c-0.2,0.9-0.9,1.5-1.8,1.5c-0.1,0-0.2,0-0.3,0C-1370.5,1860.4-1371.1,1859.7-1371.1,1858.8z
				 M-1375.6,1860.6c-0.1,0-0.2,0-0.3,0c-0.9,0-1.6-0.6-1.8-1.5c0-0.1,0-0.2,0-0.3c0-0.9,0.6-1.6,1.5-1.8c0.1,0,0.2,0,0.3,0
				c0.9,0,1.6,0.6,1.8,1.5c0,0.1,0,0.2,0,0.3C-1374.2,1859.7-1374.8,1860.4-1375.6,1860.6z M-1378.5,1869.3c0.4,0.1,0.7,0.1,1,0.1
				l0,0c2,0,3.3-1.2,3.8-2.2c0.3-0.6,0.5-1.3,0.6-1.7c0.2,0,0.4,0,0.6,0c3.4,0,6.2,2.1,6.5,5.9c0.2,2.8,0.4,5.6,0.5,8.4h-14
				c0.2-2.8,0.4-5.6,0.5-8.4C-1378.9,1870.6-1378.8,1869.9-1378.5,1869.3z M-1380.2,1871.4c-3.4-2.1-3.9-4.1-3.9-5.3
				c0-0.3,0-0.5,0.1-0.7l5,2.3c-0.3,0.4-0.4,0.7-0.4,0.7v0.1C-1379.8,1869.3-1380,1870.3-1380.2,1871.4
				C-1380.2,1871.3-1380.2,1871.4-1380.2,1871.4z M-1365.5,1881.2c0,0.1,0,0.2,0,0.3s0,0.2,0,0.3c0,0.1,0,0.2-0.1,0.3
				c0,0.1-0.1,0.2-0.1,0.3c0,0.1-0.1,0.2-0.1,0.3s-0.1,0.2-0.1,0.3c0,0.1-0.1,0.2-0.1,0.3s-0.1,0.2-0.1,0.3c0,0.1-0.1,0.2-0.1,0.3
				c-0.1,0.1-0.1,0.2-0.2,0.3c-0.1,0.1-0.1,0.2-0.2,0.2c-0.1,0.1-0.1,0.2-0.2,0.3c-0.1,0.1-0.1,0.1-0.2,0.2s-0.2,0.2-0.2,0.2
				c-0.1,0.1-0.1,0.1-0.2,0.2s-0.2,0.1-0.3,0.2c-0.1,0.1-0.1,0.1-0.2,0.2s-0.2,0.1-0.3,0.2c-0.1,0.1-0.2,0.1-0.2,0.2
				c-0.1,0.1-0.2,0.1-0.3,0.2c-0.1,0-0.2,0.1-0.3,0.1c-0.1,0.1-0.2,0.1-0.3,0.1c-0.1,0-0.2,0.1-0.3,0.1s-0.3,0.1-0.4,0.1
				s-0.2,0.1-0.3,0.1c-0.1,0-0.3,0.1-0.4,0.1s-0.2,0-0.3,0.1c-0.1,0-0.3,0-0.5,0.1c-0.1,0-0.2,0-0.3,0c-0.2,0-0.5,0-0.7,0
				c-0.3,0-0.5,0-0.7,0c-0.1,0-0.2,0-0.2,0c-0.2,0-0.3,0-0.5-0.1c-0.1,0-0.2,0-0.3-0.1c-0.1,0-0.3-0.1-0.4-0.1s-0.2-0.1-0.3-0.1
				s-0.2-0.1-0.4-0.1c-0.1,0-0.2-0.1-0.3-0.1c-0.1,0-0.2-0.1-0.3-0.1s-0.2-0.1-0.3-0.1c-0.1-0.1-0.2-0.1-0.3-0.2s-0.2-0.1-0.3-0.2
				c-0.1-0.1-0.2-0.1-0.3-0.2s-0.2-0.1-0.2-0.2c-0.1-0.1-0.2-0.1-0.3-0.2s-0.1-0.1-0.2-0.2s-0.2-0.2-0.2-0.2
				c-0.1-0.1-0.1-0.1-0.2-0.2s-0.1-0.2-0.2-0.3s-0.1-0.2-0.2-0.2c-0.1-0.1-0.1-0.2-0.2-0.3c0-0.1-0.1-0.2-0.1-0.3
				c-0.1-0.1-0.1-0.2-0.2-0.3c0-0.1-0.1-0.2-0.1-0.3c0-0.1-0.1-0.2-0.1-0.3s-0.1-0.2-0.1-0.3c0-0.1-0.1-0.2-0.1-0.3s0-0.2-0.1-0.3
				c0-0.1,0-0.2-0.1-0.3c0-0.1,0-0.2,0-0.3c0-0.1,0-0.2,0-0.3h14.1C-1365.4,1881-1365.5,1881.1-1365.5,1881.2z M-1364.9,1871.5
				c0-0.1,0-0.1,0-0.2c-0.1-1.3-0.5-2.5-1.1-3.5l5.1-2.4c0,0.2,0.1,0.4,0.1,0.7C-1360.9,1867.3-1361.4,1869.3-1364.9,1871.5z"/>
		</g>
	</g>
</g>
<g class="st1">
	<g class="st2">
		<g>
			<path d="M-1377,1873.4c-0.6,0-1.2,0.5-1.2,1.2c0,0.6,0.5,1.2,1.2,1.2s1.2-0.5,1.2-1.2S-1376.4,1873.4-1377,1873.4z M-1368,1873.4
				c-0.6,0-1.2,0.5-1.2,1.2c0,0.6,0.5,1.2,1.2,1.2c0.6,0,1.2-0.5,1.2-1.2S-1367.4,1873.4-1368,1873.4z M-1372.5,1876.8
				c-1.1,0-1.9,0.7-1.9,1.6s0.9,1.6,1.9,1.6s1.9-0.7,1.9-1.6S-1371.5,1876.8-1372.5,1876.8z M-1358.2,1863.5
				c-3.4-3.1-9.7-4.8-9.7-4.8l-0.3-0.1c-0.2-0.1-0.5-0.1-0.7-0.2l-0.2-0.1l0,0c-0.5-0.1-1.1-0.2-1.7-0.2h-3.3
				c-0.6,0-1.1,0.1-1.7,0.2l0,0l-0.2,0.1c-0.2,0.1-0.4,0.1-0.6,0.2l-0.3,0.1c0,0-2.9,0.8-5.7,2.2c-1.4,0.7-2.9,1.6-4,2.6
				s-2,2.3-2,3.7c0,0.1,0,0.2,0,0.3c0.5,5.2,4.6,11.6,4.6,11.7l0.7,1.1l0.9-2.6c0.3,4.3,3.9,7.7,8.3,7.7h3.3l0,0
				c4.4,0,8-3.4,8.3-7.7l0.9,2.6l0.7-1.1c0,0,4.1-6.5,4.6-11.7c0-0.1,0-0.2,0-0.3C-1356.3,1865.8-1357.1,1864.6-1358.2,1863.5z
				 M-1382.5,1866.6v7.3l-1.2,3.5c-1.2-2.1-3.4-6.5-3.7-9.9c0-0.1,0-0.1,0-0.2c0-0.9,0.6-1.9,1.5-2.8c1.3-1.2,3.4-2.3,5.2-3.1
				C-1381.8,1862.9-1382.5,1864.7-1382.5,1866.6z M-1363.8,1877.2c0,3.9-3.2,7.1-7.1,7.1h-3.3c-3.9,0-7.1-3.2-7.1-7.1v-10.6
				c0-3.9,3.2-7.1,7.1-7.1h3.3c3.9,0,7.1,3.2,7.1,7.1V1877.2L-1363.8,1877.2z M-1357.6,1867.5c-0.2,2.3-1.3,5.1-2.4,7.3
				c-0.5,1-1,1.9-1.4,2.6l-1.2-3.5v-7.3c0-2-0.7-3.8-1.8-5.2c1.2,0.5,2.4,1.1,3.5,1.8c1.9,1.2,3.3,2.7,3.3,4.1
				C-1357.5,1867.3-1357.5,1867.4-1357.6,1867.5z"/>
		</g>
	</g>
</g>
<g class="st1">
	<g class="st2">
		<g>
			<path d="M-1370.1,1877.9c-0.4,0.3-0.7,0.3-1,0.4c-0.3,0-0.5-0.1-0.7-0.2l0,0v-1.2c1.1-0.9,3-2.9-0.6-2.9c-3.5,0-1.7,1.9-0.6,2.9
				v1.2c-0.2,0.1-0.4,0.2-0.7,0.2s-0.6-0.1-1-0.4c-0.3-0.2-0.7-0.1-0.8,0.2c-0.2,0.3-0.1,0.7,0.2,0.8c0.6,0.4,1.2,0.6,1.7,0.6l0,0
				c0.6,0,1-0.2,1.3-0.3c0.3,0.2,0.8,0.3,1.3,0.3l0,0c0.5,0,1.1-0.2,1.7-0.6c0.3-0.2,0.4-0.6,0.2-0.8
				C-1369.4,1877.7-1369.8,1877.7-1370.1,1877.9z M-1377.3,1871c-0.8,0-1.4,0.6-1.4,1.4s0.6,1.4,1.4,1.4s1.4-0.6,1.4-1.4
				S-1376.5,1871-1377.3,1871z M-1367.6,1871c-0.8,0-1.4,0.6-1.4,1.4s0.6,1.4,1.4,1.4s1.4-0.6,1.4-1.4S-1366.9,1871-1367.6,1871z
				 M-1356.9,1881.4l-4.3-1.5c0.3-0.5,0.6-1,0.8-1.5h3.4c0.3,0,0.6-0.3,0.6-0.6s-0.3-0.6-0.6-0.6h-2.9c0.2-0.7,0.3-1.4,0.4-2.1
				l2.6-0.9c0.3-0.1,0.5-0.5,0.4-0.8s-0.5-0.5-0.8-0.4l-2.2,0.8c0-0.1,0-0.1,0-0.2c-0.1-1.6-0.6-3.3-1.3-4.8
				c0.6-3.7,1.9-4.9,3.1-7.1c0.2-0.4,0.3-0.8,0.3-1.2c0-0.5-0.2-0.9-0.5-1.2c-0.9-0.8-2.1-0.8-2.1-0.9c-0.2,0-0.5,0-0.7,0
				c-3.1,0-5.5,1.9-6.9,3.4c-1.5-0.7-3.2-1.1-4.9-1.2c-1.7,0-3.4,0.4-4.9,1.2c-1.4-1.5-3.8-3.4-6.9-3.4c-0.2,0-0.5,0-0.8,0
				c0,0-0.6,0-1.2,0.3c-0.3,0.1-0.6,0.3-0.9,0.6c-0.3,0.3-0.5,0.7-0.5,1.2c0,0.4,0.1,0.8,0.3,1.2c1.1,2.1,2.4,3.3,3.1,7.1
				c-0.7,1.5-1.2,3.2-1.3,4.8c0,0.1,0,0.1,0,0.2l-2.2-0.8c-0.3-0.1-0.7,0.1-0.8,0.4c-0.1,0.3,0.1,0.7,0.4,0.8l2.6,0.9
				c0.1,0.7,0.2,1.4,0.4,2.1h-2.9c-0.3,0-0.6,0.3-0.6,0.6c0,0.3,0.3,0.6,0.6,0.6h3.4c0.2,0.5,0.5,1,0.8,1.5l-4.3,1.5
				c-0.3,0.1-0.5,0.5-0.4,0.8s0.3,0.4,0.6,0.4c0.1,0,0.1,0,0.2,0l4.6-1.6c2.4,2.8,6.2,4.7,10.5,4.7c4.4,0,8.2-1.9,10.5-4.7l4.6,1.6
				c0.1,0,0.1,0,0.2,0c0.3,0,0.5-0.2,0.6-0.4C-1356.4,1881.8-1356.6,1881.5-1356.9,1881.4z M-1360.7,1859.6c0.2,0,0.4,0,0.6,0
				c0,0,0.1,0,0.3,0s0.6,0.1,0.9,0.3c0.3,0.2,0.3,0.3,0.4,0.5c0,0.1,0,0.3-0.2,0.6c-0.9,1.7-2.1,3.1-2.9,6c-0.4-0.6-0.8-1.2-1.3-1.7
				c0.3-1,0.7-1.5,1-2.1c0.4-0.8-0.7-0.9-0.7-0.9c-1-0.1-1.9,0.5-2.5,1c-0.5-0.4-0.9-0.7-1.4-1
				C-1365.2,1861.1-1363.1,1859.5-1360.7,1859.6z M-1386.2,1861.1c-0.2-0.3-0.2-0.5-0.2-0.6c0-0.2,0-0.2,0.1-0.4
				c0.2-0.2,0.5-0.3,0.8-0.4c0.2,0,0.3-0.1,0.4-0.1s0.1,0,0.1,0c0.2,0,0.4,0,0.6,0l0,0c2.1,0,3.9,1.1,5.2,2.3
				c0.2,0.2,0.4,0.4,0.6,0.5c-0.5,0.3-1,0.6-1.4,1c-0.6-0.5-1.4-1.1-2.5-1c0,0-1.1,0.1-0.7,0.9c0.3,0.6,0.8,1.1,1,2.1
				c-0.5,0.5-0.9,1.1-1.3,1.7C-1384.1,1864.1-1385.3,1862.7-1386.2,1861.1z M-1362.4,1879.5l-1.6-0.5c-0.3-0.1-0.7,0.1-0.8,0.4
				c-0.1,0.3,0.1,0.7,0.4,0.8l1.2,0.4c-2.1,2.3-5.4,3.9-9.3,3.9s-7.2-1.6-9.3-3.9l1.2-0.4c0.3-0.1,0.5-0.5,0.4-0.8s-0.5-0.5-0.8-0.4
				l-1.6,0.5c-0.3-0.4-0.5-0.7-0.7-1.1h2.6c0.3,0,0.6-0.3,0.6-0.6s-0.3-0.6-0.6-0.6h-3.1c-0.2-0.5-0.3-1.1-0.4-1.7l3.2,1.1
				c0.1,0,0.1,0,0.2,0c0.3,0,0.5-0.2,0.6-0.4c0.1-0.3-0.1-0.7-0.4-0.8l-3.7-1.3c0-0.2,0-0.4,0-0.5c0.4-5.9,5.7-11.8,11.8-11.8
				c6.1,0,11.4,5.9,11.8,11.8c0,0.2,0,0.4,0,0.5l-3.7,1.3c-0.3,0.1-0.5,0.5-0.4,0.8s0.3,0.4,0.6,0.4c0.1,0,0.1,0,0.2,0l3.2-1.1
				c-0.1,0.6-0.2,1.1-0.4,1.7h-3.1c-0.3,0-0.6,0.3-0.6,0.6s0.3,0.6,0.6,0.6h2.6C-1361.9,1878.7-1362.1,1879.1-1362.4,1879.5z"/>
		</g>
	</g>
</g>
<g id="XMLID_16_">
	<g id="XMLID_17_">
		<g id="XMLID_18_">
			<path id="XMLID_19_" class="st3" d="M-242.7,394c0.4-0.4,0.7-0.7,1.1-1.2c1.1-1.3,2.1-3,3.1-5c1.4-2.8,2.1-5.5,2.1-7.3
				c0-1-0.2-1.9-1.1-2.4c-0.2-0.1-0.4-0.2-0.6-0.2c-1.2,0.1-2.1,0.9-3.2,2.2c-1.1,1.3-2.1,3-3.1,5c-1.2,2.4-1.9,4.8-2,6.6
				c-1.4-0.5-3-0.9-4.7-0.9c-1.6,0-3.1,0.3-4.6,0.8c-0.2-1.8-0.9-4.1-2-6.6c-0.9-2-2-3.7-3.1-4.9c-1.1-1.3-2-2.1-3.1-2.2
				c-0.2,0-0.5,0-0.6,0.2c-0.9,0.4-1.1,1.3-1.1,2.4c0,1.9,0.7,4.5,2.1,7.3c0.9,2,2,3.7,3.1,5c0.4,0.4,0.7,0.8,1,1.1
				c-2.7,2.3-4.4,5.8-4.4,9.6c0,7,5.7,12.7,12.7,12.7c7,0,12.7-5.7,12.7-12.7C-238.3,399.7-240,396.2-242.7,394z M-243.1,385.7
				c0.9-1.9,1.9-3.5,2.9-4.7c0.9-1.1,1.8-1.6,2.1-1.6l0,0h0.1c0,0,0.1,0,0.2,0.3c0.1,0.2,0.1,0.5,0.1,0.9c0,1.5-0.6,4-1.9,6.8
				c-0.9,1.9-1.9,3.5-2.9,4.7c-0.4,0.5-0.8,0.9-1.2,1.2c-0.4-0.3-0.8-0.5-1.3-0.8C-245,390.8-244.4,388.2-243.1,385.7z
				 M-262.1,387.2c-1.3-2.7-1.9-5.2-1.9-6.8c0-0.4,0.1-0.7,0.1-0.9c0.1-0.2,0.2-0.3,0.2-0.3s0,0,0.1,0l0,0c0.3,0,1.2,0.5,2.1,1.6
				c0.9,1.2,2,2.8,2.9,4.7c1.2,2.6,1.9,5,1.9,6.6c-0.5,0.3-0.9,0.5-1.4,0.8c-0.4-0.3-0.7-0.6-1.1-1.1
				C-260.2,390.8-261.2,389.2-262.1,387.2z M-251,415c-6.3,0-11.3-5.1-11.3-11.3c0-6.3,5.1-11.3,11.3-11.3c6.3,0,11.3,5.1,11.3,11.3
				C-239.6,409.8-244.7,415-251,415z M-249.9,408l-1.2,1.1l-1.1-1.1c-0.3-0.3-0.7-0.3-1,0c-0.3,0.3-0.3,0.7,0,1l0,0l1.4,1.4v1.1
				c0,0.4,0.3,0.7,0.7,0.7s0.7-0.3,0.7-0.7v-1.1l1.4-1.4c0.3-0.3,0.3-0.7,0-1C-249.2,407.8-249.6,407.8-249.9,408z M-245.2,403
				c-0.8,0-1.4,0.6-1.4,1.4s0.6,1.4,1.4,1.4s1.4-0.6,1.4-1.4S-244.5,403-245.2,403z M-256.8,403c-0.8,0-1.4,0.6-1.4,1.4
				s0.6,1.4,1.4,1.4s1.4-0.6,1.4-1.4S-256,403-256.8,403z"/>
		</g>
	</g>
</g>
</svg>
